%FSLAX25Y25*%
%MOIN*%
G70*
G01*
G75*
G04 Layer_Color=128*
%ADD10C,0.01000*%
%ADD11C,0.04000*%
%ADD12C,0.02000*%
%ADD13C,0.00787*%
%ADD14C,0.12992*%
%ADD15O,0.05600X0.06400*%
%ADD16R,0.05600X0.06400*%
%ADD17C,0.04000*%
%ADD18C,0.05600*%
%ADD19C,0.05000*%
%ADD20R,0.06299X0.05512*%
%ADD21R,0.06000X0.05000*%
%ADD22R,0.05000X0.05000*%
%ADD23R,0.05000X0.05000*%
%ADD24R,0.11811X0.05906*%
%ADD25R,0.15748X0.07874*%
%ADD26R,0.05906X0.01181*%
%ADD27R,0.05000X0.06000*%
%ADD28R,0.04921X0.05118*%
%ADD29C,0.06000*%
%ADD30C,0.01200*%
%ADD31C,0.01600*%
%ADD32O,0.06400X0.07200*%
%ADD33R,0.06400X0.07200*%
%ADD34R,0.40000X0.14500*%
%ADD35R,0.07099X0.06312*%
%ADD36R,0.06800X0.05800*%
%ADD37R,0.05800X0.05800*%
%ADD38R,0.05800X0.05800*%
%ADD39R,0.12611X0.06706*%
%ADD40R,0.16548X0.08674*%
%ADD41R,0.06706X0.01981*%
%ADD42R,0.05800X0.06800*%
%ADD43R,0.05721X0.05918*%
D10*
X574016Y31496D02*
G03*
X574016Y31496I-18898J0D01*
G01*
Y86614D02*
G03*
X574016Y86614I-18898J0D01*
G01*
D13*
X404449Y26654D02*
X459567D01*
Y42402D01*
X463504D01*
X487126D01*
Y121142D01*
X376890D02*
X487126D01*
X376890Y42402D02*
Y121142D01*
Y42402D02*
X404449D01*
Y26654D02*
Y42402D01*
X0Y0D02*
Y165354D01*
X610236D01*
Y0D02*
Y165354D01*
X0Y0D02*
X610236D01*
D20*
X188976Y123622D02*
D03*
Y144095D02*
D03*
X165354Y123622D02*
D03*
Y144095D02*
D03*
X141732Y123622D02*
D03*
Y144095D02*
D03*
X118110Y123622D02*
D03*
Y144095D02*
D03*
X90551Y123622D02*
D03*
Y144095D02*
D03*
X66929Y123622D02*
D03*
Y144095D02*
D03*
X43307Y123622D02*
D03*
Y144095D02*
D03*
X19685Y123622D02*
D03*
Y144095D02*
D03*
X212598Y123228D02*
D03*
Y143701D02*
D03*
X236221Y123228D02*
D03*
Y143701D02*
D03*
X262992Y123228D02*
D03*
Y143701D02*
D03*
X286614Y123228D02*
D03*
Y143701D02*
D03*
X310236Y123228D02*
D03*
Y143701D02*
D03*
X333858Y123228D02*
D03*
Y143701D02*
D03*
X551181Y123228D02*
D03*
Y143701D02*
D03*
D21*
X282000Y19500D02*
D03*
X273000D02*
D03*
X282000Y29500D02*
D03*
X273000D02*
D03*
D22*
X160500Y45000D02*
D03*
Y53500D02*
D03*
X278000Y52500D02*
D03*
Y61000D02*
D03*
X268500Y52500D02*
D03*
Y61000D02*
D03*
D23*
X191500Y26000D02*
D03*
X200000D02*
D03*
D24*
X303150Y59213D02*
D03*
X320866Y54213D02*
D03*
X303150Y49213D02*
D03*
X320866Y44213D02*
D03*
X303150Y39213D02*
D03*
X320866Y34213D02*
D03*
D25*
X527559Y22047D02*
D03*
Y40945D02*
D03*
X582677D02*
D03*
Y22047D02*
D03*
X527559Y77165D02*
D03*
Y96063D02*
D03*
X582677D02*
D03*
Y77165D02*
D03*
D26*
X211709Y77000D02*
D03*
Y74441D02*
D03*
Y71882D02*
D03*
Y69323D02*
D03*
Y66764D02*
D03*
Y64205D02*
D03*
Y61646D02*
D03*
Y59087D02*
D03*
Y56528D02*
D03*
Y53969D02*
D03*
Y51409D02*
D03*
Y48850D02*
D03*
Y46291D02*
D03*
Y43732D02*
D03*
X181000D02*
D03*
Y46291D02*
D03*
Y48850D02*
D03*
Y51409D02*
D03*
Y53969D02*
D03*
Y56528D02*
D03*
Y59087D02*
D03*
Y61646D02*
D03*
Y64205D02*
D03*
Y66764D02*
D03*
Y69323D02*
D03*
Y71882D02*
D03*
Y74441D02*
D03*
Y77000D02*
D03*
D27*
X256500Y30500D02*
D03*
Y21500D02*
D03*
X245500Y30500D02*
D03*
Y21500D02*
D03*
X348425Y76772D02*
D03*
Y85772D02*
D03*
X360236Y76772D02*
D03*
Y85772D02*
D03*
X232500Y53000D02*
D03*
Y62000D02*
D03*
D28*
X188976Y104331D02*
D03*
Y112205D02*
D03*
X165354Y104331D02*
D03*
Y112205D02*
D03*
X141732Y104331D02*
D03*
Y112205D02*
D03*
X118110Y104331D02*
D03*
Y112205D02*
D03*
X90551Y104331D02*
D03*
Y112205D02*
D03*
X66929Y104331D02*
D03*
Y112205D02*
D03*
X43307Y104331D02*
D03*
Y112205D02*
D03*
X19685Y104331D02*
D03*
Y112205D02*
D03*
X212598Y104331D02*
D03*
Y112205D02*
D03*
X236221Y104331D02*
D03*
Y112205D02*
D03*
X263000Y104500D02*
D03*
Y112374D02*
D03*
X287000Y104500D02*
D03*
Y112374D02*
D03*
X310500Y104000D02*
D03*
Y111874D02*
D03*
X334000Y104500D02*
D03*
Y112374D02*
D03*
X567500Y131000D02*
D03*
Y123126D02*
D03*
M02*
