%FSLAX25Y25*%
%MOIN*%
G70*
G01*
G75*
G04 Layer_Physical_Order=1*
G04 Layer_Color=255*
%ADD10C,0.01000*%
%ADD11C,0.04000*%
%ADD12C,0.02000*%
%ADD13C,0.00787*%
%ADD14C,0.12992*%
%ADD15O,0.05600X0.06400*%
%ADD16R,0.05600X0.06400*%
%ADD17C,0.04000*%
%ADD18C,0.05600*%
%ADD19C,0.05000*%
G36*
X610236Y0D02*
X0D01*
Y165354D01*
X610236D01*
Y0D01*
D02*
G37*
%LPC*%
G36*
X246000Y55000D02*
X242531D01*
X242603Y54456D01*
X243006Y53483D01*
X243647Y52647D01*
X244483Y52006D01*
X245456Y51603D01*
X246000Y51531D01*
Y55000D01*
D02*
G37*
G36*
X250469D02*
X247000D01*
Y51531D01*
X247544Y51603D01*
X248517Y52006D01*
X249353Y52647D01*
X249994Y53483D01*
X250397Y54456D01*
X250469Y55000D01*
D02*
G37*
G36*
X208500Y43228D02*
X207665Y43118D01*
X206886Y42795D01*
X206218Y42282D01*
X205797Y41733D01*
X198704D01*
X198282Y42282D01*
X197614Y42795D01*
X196835Y43118D01*
X196000Y43228D01*
X195165Y43118D01*
X194386Y42795D01*
X193718Y42282D01*
X193205Y41614D01*
X192882Y40835D01*
X192772Y40000D01*
X192882Y39165D01*
X193205Y38386D01*
X193718Y37718D01*
X194386Y37205D01*
X195165Y36882D01*
X196000Y36772D01*
X196835Y36882D01*
X197614Y37205D01*
X198282Y37718D01*
X198704Y38267D01*
X205797D01*
X206218Y37718D01*
X206886Y37205D01*
X207665Y36882D01*
X208500Y36772D01*
X209335Y36882D01*
X210114Y37205D01*
X210782Y37718D01*
X211295Y38386D01*
X211618Y39165D01*
X211728Y40000D01*
X211618Y40835D01*
X211295Y41614D01*
X210782Y42282D01*
X210114Y42795D01*
X209335Y43118D01*
X208500Y43228D01*
D02*
G37*
G36*
X337000Y44666D02*
X336534Y44605D01*
X335634Y44232D01*
X334861Y43639D01*
X334268Y42866D01*
X333895Y41966D01*
X333834Y41500D01*
X337000D01*
Y44666D01*
D02*
G37*
G36*
X338000D02*
Y41500D01*
X341166D01*
X341105Y41966D01*
X340732Y42866D01*
X340139Y43639D01*
X339366Y44232D01*
X338466Y44605D01*
X338000Y44666D01*
D02*
G37*
G36*
X246000Y59469D02*
X245456Y59397D01*
X244483Y58994D01*
X243647Y58353D01*
X243006Y57517D01*
X242603Y56544D01*
X242531Y56000D01*
X246000D01*
Y59469D01*
D02*
G37*
G36*
X341166Y62000D02*
X338000D01*
Y58834D01*
X338466Y58895D01*
X339366Y59268D01*
X340139Y59861D01*
X340732Y60634D01*
X341105Y61534D01*
X341166Y62000D01*
D02*
G37*
G36*
X337000Y66166D02*
X336534Y66105D01*
X335634Y65732D01*
X334861Y65139D01*
X334268Y64366D01*
X333895Y63466D01*
X333834Y63000D01*
X337000D01*
Y66166D01*
D02*
G37*
G36*
Y62000D02*
X333834D01*
X333895Y61534D01*
X334268Y60634D01*
X334861Y59861D01*
X335634Y59268D01*
X336534Y58895D01*
X337000Y58834D01*
Y62000D01*
D02*
G37*
G36*
X247000Y59469D02*
Y56000D01*
X250469D01*
X250397Y56544D01*
X249994Y57517D01*
X249353Y58353D01*
X248517Y58994D01*
X247544Y59397D01*
X247000Y59469D01*
D02*
G37*
G36*
X204000Y68728D02*
X203165Y68618D01*
X202386Y68295D01*
X201718Y67782D01*
X201205Y67114D01*
X200882Y66335D01*
X200772Y65500D01*
X200882Y64665D01*
X201205Y63886D01*
X201718Y63218D01*
X202386Y62705D01*
X203165Y62382D01*
X204000Y62272D01*
X204835Y62382D01*
X205614Y62705D01*
X206282Y63218D01*
X206703Y63767D01*
X217282D01*
X218863Y62186D01*
X218772Y61500D01*
X218882Y60665D01*
X219205Y59886D01*
X219718Y59218D01*
X220386Y58705D01*
X221165Y58382D01*
X222000Y58272D01*
X222835Y58382D01*
X223614Y58705D01*
X224282Y59218D01*
X224795Y59886D01*
X225118Y60665D01*
X225228Y61500D01*
X225118Y62335D01*
X224795Y63114D01*
X224282Y63782D01*
X223614Y64295D01*
X222835Y64618D01*
X222000Y64728D01*
X221314Y64637D01*
X219226Y66726D01*
X218663Y67101D01*
X218000Y67233D01*
X206703D01*
X206282Y67782D01*
X205614Y68295D01*
X204835Y68618D01*
X204000Y68728D01*
D02*
G37*
G36*
X268000Y43469D02*
Y40000D01*
X271469D01*
X271397Y40544D01*
X270994Y41517D01*
X270353Y42353D01*
X269517Y42994D01*
X268544Y43397D01*
X268000Y43469D01*
D02*
G37*
G36*
X267000Y14469D02*
X266456Y14397D01*
X265483Y13994D01*
X264647Y13353D01*
X264006Y12517D01*
X263603Y11544D01*
X263531Y11000D01*
X267000D01*
Y14469D01*
D02*
G37*
G36*
X268000D02*
Y11000D01*
X271469D01*
X271397Y11544D01*
X270994Y12517D01*
X270353Y13353D01*
X269517Y13994D01*
X268544Y14397D01*
X268000Y14469D01*
D02*
G37*
G36*
X555118Y52138D02*
X552424Y51961D01*
X549776Y51434D01*
X547219Y50567D01*
X544797Y49372D01*
X542552Y47872D01*
X540522Y46092D01*
X538742Y44062D01*
X537242Y41817D01*
X536048Y39395D01*
X535180Y36839D01*
X534653Y34190D01*
X534476Y31496D01*
X534653Y28802D01*
X535180Y26154D01*
X536048Y23597D01*
X537242Y21175D01*
X538742Y18930D01*
X540522Y16900D01*
X542552Y15120D01*
X544797Y13620D01*
X547219Y12426D01*
X549776Y11558D01*
X552424Y11031D01*
X555118Y10854D01*
X557812Y11031D01*
X560461Y11558D01*
X563017Y12426D01*
X565439Y13620D01*
X567684Y15120D01*
X569714Y16900D01*
X571494Y18930D01*
X572994Y21175D01*
X574189Y23597D01*
X575057Y26154D01*
X575583Y28802D01*
X575760Y31496D01*
X575583Y34190D01*
X575057Y36839D01*
X574189Y39395D01*
X572994Y41817D01*
X571494Y44062D01*
X569714Y46092D01*
X567684Y47872D01*
X565439Y49372D01*
X563017Y50567D01*
X560461Y51434D01*
X557812Y51961D01*
X555118Y52138D01*
D02*
G37*
G36*
X267000Y10000D02*
X263531D01*
X263603Y9456D01*
X264006Y8483D01*
X264647Y7647D01*
X265483Y7006D01*
X266456Y6603D01*
X267000Y6531D01*
Y10000D01*
D02*
G37*
G36*
X271469D02*
X268000D01*
Y6531D01*
X268544Y6603D01*
X269517Y7006D01*
X270353Y7647D01*
X270994Y8483D01*
X271397Y9456D01*
X271469Y10000D01*
D02*
G37*
G36*
X487126Y122767D02*
X376890D01*
X376268Y122643D01*
X375741Y122291D01*
X375389Y121764D01*
X375265Y121142D01*
Y42402D01*
X375389Y41780D01*
X375741Y41253D01*
X376268Y40900D01*
X376890Y40777D01*
X402824D01*
Y26654D01*
X402948Y26032D01*
X403300Y25505D01*
X403827Y25152D01*
X404449Y25029D01*
X459567D01*
X460189Y25152D01*
X460716Y25505D01*
X461068Y26032D01*
X461192Y26654D01*
X461192Y26654D01*
X461192Y26654D01*
Y26654D01*
Y40777D01*
X487126D01*
X487748Y40900D01*
X488275Y41253D01*
X488627Y41780D01*
X488751Y42401D01*
X488751Y42402D01*
X488751Y42402D01*
Y42402D01*
Y121142D01*
X488627Y121764D01*
X488275Y122291D01*
X487748Y122643D01*
X487126Y122767D01*
D02*
G37*
G36*
X341166Y40500D02*
X338000D01*
Y37334D01*
X338466Y37395D01*
X339366Y37768D01*
X340139Y38361D01*
X340732Y39134D01*
X341105Y40034D01*
X341166Y40500D01*
D02*
G37*
G36*
X267000Y43469D02*
X266456Y43397D01*
X265483Y42994D01*
X264647Y42353D01*
X264006Y41517D01*
X263603Y40544D01*
X263531Y40000D01*
X267000D01*
Y43469D01*
D02*
G37*
G36*
X337000Y40500D02*
X333834D01*
X333895Y40034D01*
X334268Y39134D01*
X334861Y38361D01*
X335634Y37768D01*
X336534Y37395D01*
X337000Y37334D01*
Y40500D01*
D02*
G37*
G36*
X267000Y39000D02*
X263531D01*
X263603Y38456D01*
X264006Y37483D01*
X264647Y36647D01*
X265483Y36006D01*
X266456Y35603D01*
X267000Y35531D01*
Y39000D01*
D02*
G37*
G36*
X271469D02*
X268000D01*
Y35531D01*
X268544Y35603D01*
X269517Y36006D01*
X270353Y36647D01*
X270994Y37483D01*
X271397Y38456D01*
X271469Y39000D01*
D02*
G37*
G36*
X165354Y141592D02*
X163846Y141443D01*
X162395Y141003D01*
X161058Y140288D01*
X159886Y139327D01*
X158924Y138155D01*
X158210Y136818D01*
X157770Y135367D01*
X157621Y133858D01*
X157770Y132350D01*
X158210Y130899D01*
X158924Y129562D01*
X159886Y128390D01*
X161058Y127428D01*
X162395Y126714D01*
X163846Y126274D01*
X165354Y126125D01*
X166863Y126274D01*
X168314Y126714D01*
X169651Y127428D01*
X170823Y128390D01*
X171784Y129562D01*
X172499Y130899D01*
X172939Y132350D01*
X173088Y133858D01*
X172939Y135367D01*
X172499Y136818D01*
X171784Y138155D01*
X170823Y139327D01*
X169651Y140288D01*
X168314Y141003D01*
X166863Y141443D01*
X165354Y141592D01*
D02*
G37*
G36*
X188976D02*
X187468Y141443D01*
X186017Y141003D01*
X184680Y140288D01*
X183508Y139327D01*
X182546Y138155D01*
X181832Y136818D01*
X181392Y135367D01*
X181243Y133858D01*
X181392Y132350D01*
X181832Y130899D01*
X182546Y129562D01*
X183508Y128390D01*
X184680Y127428D01*
X186017Y126714D01*
X187468Y126274D01*
X188976Y126125D01*
X190485Y126274D01*
X191936Y126714D01*
X193273Y127428D01*
X194445Y128390D01*
X195406Y129562D01*
X196121Y130899D01*
X196561Y132350D01*
X196710Y133858D01*
X196561Y135367D01*
X196121Y136818D01*
X195406Y138155D01*
X194445Y139327D01*
X193273Y140288D01*
X191936Y141003D01*
X190485Y141443D01*
X188976Y141592D01*
D02*
G37*
G36*
X427008Y140261D02*
X425964Y140124D01*
X424991Y139721D01*
X424155Y139080D01*
X423514Y138244D01*
X423111Y137271D01*
X422973Y136227D01*
Y135427D01*
X423111Y134383D01*
X423514Y133410D01*
X424155Y132574D01*
X424991Y131933D01*
X425964Y131530D01*
X427008Y131392D01*
X428052Y131530D01*
X429025Y131933D01*
X429861Y132574D01*
X430502Y133410D01*
X430905Y134383D01*
X431042Y135427D01*
Y136227D01*
X430905Y137271D01*
X430502Y138244D01*
X429861Y139080D01*
X429025Y139721D01*
X428052Y140124D01*
X427008Y140261D01*
D02*
G37*
G36*
X90551Y141592D02*
X89043Y141443D01*
X87592Y141003D01*
X86255Y140288D01*
X85083Y139327D01*
X84121Y138155D01*
X83407Y136818D01*
X82967Y135367D01*
X82818Y133858D01*
X82967Y132350D01*
X83407Y130899D01*
X84121Y129562D01*
X85083Y128390D01*
X86255Y127428D01*
X87592Y126714D01*
X89043Y126274D01*
X90551Y126125D01*
X92060Y126274D01*
X93511Y126714D01*
X94848Y127428D01*
X96019Y128390D01*
X96981Y129562D01*
X97696Y130899D01*
X98136Y132350D01*
X98285Y133858D01*
X98136Y135367D01*
X97696Y136818D01*
X96981Y138155D01*
X96019Y139327D01*
X94848Y140288D01*
X93511Y141003D01*
X92060Y141443D01*
X90551Y141592D01*
D02*
G37*
G36*
X118110D02*
X116602Y141443D01*
X115151Y141003D01*
X113814Y140288D01*
X112642Y139327D01*
X111680Y138155D01*
X110966Y136818D01*
X110526Y135367D01*
X110377Y133858D01*
X110526Y132350D01*
X110966Y130899D01*
X111680Y129562D01*
X112642Y128390D01*
X113814Y127428D01*
X115151Y126714D01*
X116602Y126274D01*
X118110Y126125D01*
X119619Y126274D01*
X121070Y126714D01*
X122407Y127428D01*
X123579Y128390D01*
X124540Y129562D01*
X125255Y130899D01*
X125695Y132350D01*
X125844Y133858D01*
X125695Y135367D01*
X125255Y136818D01*
X124540Y138155D01*
X123579Y139327D01*
X122407Y140288D01*
X121070Y141003D01*
X119619Y141443D01*
X118110Y141592D01*
D02*
G37*
G36*
X141732D02*
X140224Y141443D01*
X138773Y141003D01*
X137436Y140288D01*
X136264Y139327D01*
X135302Y138155D01*
X134588Y136818D01*
X134148Y135367D01*
X133999Y133858D01*
X134148Y132350D01*
X134588Y130899D01*
X135302Y129562D01*
X136264Y128390D01*
X137436Y127428D01*
X138773Y126714D01*
X140224Y126274D01*
X141732Y126125D01*
X143241Y126274D01*
X144692Y126714D01*
X146029Y127428D01*
X147201Y128390D01*
X148162Y129562D01*
X148877Y130899D01*
X149317Y132350D01*
X149466Y133858D01*
X149317Y135367D01*
X148877Y136818D01*
X148162Y138155D01*
X147201Y139327D01*
X146029Y140288D01*
X144692Y141003D01*
X143241Y141443D01*
X141732Y141592D01*
D02*
G37*
G36*
X421008Y135327D02*
X417508D01*
Y131427D01*
X421008D01*
Y135327D01*
D02*
G37*
G36*
X416508Y140227D02*
X413008D01*
Y136327D01*
X416508D01*
Y140227D01*
D02*
G37*
G36*
X421008D02*
X417508D01*
Y136327D01*
X421008D01*
Y140227D01*
D02*
G37*
G36*
X437008Y140261D02*
X435964Y140124D01*
X434991Y139721D01*
X434155Y139080D01*
X433514Y138244D01*
X433111Y137271D01*
X432973Y136227D01*
Y135427D01*
X433111Y134383D01*
X433514Y133410D01*
X434155Y132574D01*
X434991Y131933D01*
X435964Y131530D01*
X437008Y131392D01*
X438052Y131530D01*
X439025Y131933D01*
X439861Y132574D01*
X440502Y133410D01*
X440905Y134383D01*
X441042Y135427D01*
Y136227D01*
X440905Y137271D01*
X440502Y138244D01*
X439861Y139080D01*
X439025Y139721D01*
X438052Y140124D01*
X437008Y140261D01*
D02*
G37*
G36*
X447008D02*
X445964Y140124D01*
X444991Y139721D01*
X444155Y139080D01*
X443514Y138244D01*
X443111Y137271D01*
X442973Y136227D01*
Y135427D01*
X443111Y134383D01*
X443514Y133410D01*
X444155Y132574D01*
X444991Y131933D01*
X445964Y131530D01*
X447008Y131392D01*
X448052Y131530D01*
X449025Y131933D01*
X449861Y132574D01*
X450502Y133410D01*
X450905Y134383D01*
X451042Y135427D01*
Y136227D01*
X450905Y137271D01*
X450502Y138244D01*
X449861Y139080D01*
X449025Y139721D01*
X448052Y140124D01*
X447008Y140261D01*
D02*
G37*
G36*
X416508Y135327D02*
X413008D01*
Y131427D01*
X416508D01*
Y135327D01*
D02*
G37*
G36*
X286614Y141198D02*
X285105Y141049D01*
X283655Y140609D01*
X282318Y139895D01*
X281146Y138933D01*
X280184Y137761D01*
X279469Y136424D01*
X279029Y134973D01*
X278881Y133465D01*
X279029Y131956D01*
X279469Y130505D01*
X280184Y129168D01*
X281146Y127996D01*
X282318Y127035D01*
X283655Y126320D01*
X285105Y125880D01*
X286614Y125731D01*
X288123Y125880D01*
X289574Y126320D01*
X290911Y127035D01*
X292082Y127996D01*
X293044Y129168D01*
X293759Y130505D01*
X294199Y131956D01*
X294348Y133465D01*
X294199Y134973D01*
X293759Y136424D01*
X293044Y137761D01*
X292082Y138933D01*
X290911Y139895D01*
X289574Y140609D01*
X288123Y141049D01*
X286614Y141198D01*
D02*
G37*
G36*
X310236D02*
X308728Y141049D01*
X307277Y140609D01*
X305940Y139895D01*
X304768Y138933D01*
X303806Y137761D01*
X303092Y136424D01*
X302652Y134973D01*
X302503Y133465D01*
X302652Y131956D01*
X303092Y130505D01*
X303806Y129168D01*
X304768Y127996D01*
X305940Y127035D01*
X307277Y126320D01*
X308728Y125880D01*
X310236Y125731D01*
X311745Y125880D01*
X313196Y126320D01*
X314533Y127035D01*
X315704Y127996D01*
X316666Y129168D01*
X317381Y130505D01*
X317821Y131956D01*
X317969Y133465D01*
X317821Y134973D01*
X317381Y136424D01*
X316666Y137761D01*
X315704Y138933D01*
X314533Y139895D01*
X313196Y140609D01*
X311745Y141049D01*
X310236Y141198D01*
D02*
G37*
G36*
X333858D02*
X332350Y141049D01*
X330899Y140609D01*
X329562Y139895D01*
X328390Y138933D01*
X327428Y137761D01*
X326714Y136424D01*
X326274Y134973D01*
X326125Y133465D01*
X326274Y131956D01*
X326714Y130505D01*
X327428Y129168D01*
X328390Y127996D01*
X329562Y127035D01*
X330899Y126320D01*
X332350Y125880D01*
X333858Y125731D01*
X335367Y125880D01*
X336818Y126320D01*
X338155Y127035D01*
X339327Y127996D01*
X340288Y129168D01*
X341003Y130505D01*
X341443Y131956D01*
X341592Y133465D01*
X341443Y134973D01*
X341003Y136424D01*
X340288Y137761D01*
X339327Y138933D01*
X338155Y139895D01*
X336818Y140609D01*
X335367Y141049D01*
X333858Y141198D01*
D02*
G37*
G36*
X338000Y66166D02*
Y63000D01*
X341166D01*
X341105Y63466D01*
X340732Y64366D01*
X340139Y65139D01*
X339366Y65732D01*
X338466Y66105D01*
X338000Y66166D01*
D02*
G37*
G36*
X555118Y107256D02*
X552424Y107079D01*
X549776Y106553D01*
X547219Y105685D01*
X544797Y104490D01*
X542552Y102990D01*
X540522Y101210D01*
X538742Y99180D01*
X537242Y96935D01*
X536048Y94513D01*
X535180Y91957D01*
X534653Y89309D01*
X534476Y86614D01*
X534653Y83920D01*
X535180Y81272D01*
X536048Y78715D01*
X537242Y76293D01*
X538742Y74048D01*
X540522Y72018D01*
X542552Y70238D01*
X544797Y68738D01*
X547219Y67544D01*
X549776Y66676D01*
X552424Y66149D01*
X555118Y65972D01*
X557812Y66149D01*
X560461Y66676D01*
X563017Y67544D01*
X565439Y68738D01*
X567684Y70238D01*
X569714Y72018D01*
X571494Y74048D01*
X572994Y76293D01*
X574189Y78715D01*
X575057Y81272D01*
X575583Y83920D01*
X575760Y86614D01*
X575583Y89309D01*
X575057Y91957D01*
X574189Y94513D01*
X572994Y96935D01*
X571494Y99180D01*
X569714Y101210D01*
X567684Y102990D01*
X565439Y104490D01*
X563017Y105685D01*
X560461Y106553D01*
X557812Y107079D01*
X555118Y107256D01*
D02*
G37*
G36*
X262992Y141198D02*
X261483Y141049D01*
X260033Y140609D01*
X258696Y139895D01*
X257524Y138933D01*
X256562Y137761D01*
X255848Y136424D01*
X255407Y134973D01*
X255259Y133465D01*
X255407Y131956D01*
X255848Y130505D01*
X256562Y129168D01*
X257524Y127996D01*
X258696Y127035D01*
X260033Y126320D01*
X261483Y125880D01*
X262992Y125731D01*
X264501Y125880D01*
X265951Y126320D01*
X267288Y127035D01*
X268460Y127996D01*
X269422Y129168D01*
X270137Y130505D01*
X270577Y131956D01*
X270725Y133465D01*
X270577Y134973D01*
X270137Y136424D01*
X269422Y137761D01*
X268460Y138933D01*
X267288Y139895D01*
X265951Y140609D01*
X264501Y141049D01*
X262992Y141198D01*
D02*
G37*
G36*
X19685Y141592D02*
X18176Y141443D01*
X16726Y141003D01*
X15389Y140288D01*
X14217Y139327D01*
X13255Y138155D01*
X12540Y136818D01*
X12100Y135367D01*
X11952Y133858D01*
X12100Y132350D01*
X12540Y130899D01*
X13255Y129562D01*
X14217Y128390D01*
X15389Y127428D01*
X16726Y126714D01*
X18176Y126274D01*
X19685Y126125D01*
X21194Y126274D01*
X22645Y126714D01*
X23981Y127428D01*
X25153Y128390D01*
X26115Y129562D01*
X26830Y130899D01*
X27270Y132350D01*
X27418Y133858D01*
X27270Y135367D01*
X26830Y136818D01*
X26115Y138155D01*
X25153Y139327D01*
X23981Y140288D01*
X22645Y141003D01*
X21194Y141443D01*
X19685Y141592D01*
D02*
G37*
G36*
X43307D02*
X41798Y141443D01*
X40348Y141003D01*
X39011Y140288D01*
X37839Y139327D01*
X36877Y138155D01*
X36162Y136818D01*
X35722Y135367D01*
X35574Y133858D01*
X35722Y132350D01*
X36162Y130899D01*
X36877Y129562D01*
X37839Y128390D01*
X39011Y127428D01*
X40348Y126714D01*
X41798Y126274D01*
X43307Y126125D01*
X44816Y126274D01*
X46266Y126714D01*
X47603Y127428D01*
X48775Y128390D01*
X49737Y129562D01*
X50452Y130899D01*
X50892Y132350D01*
X51040Y133858D01*
X50892Y135367D01*
X50452Y136818D01*
X49737Y138155D01*
X48775Y139327D01*
X47603Y140288D01*
X46266Y141003D01*
X44816Y141443D01*
X43307Y141592D01*
D02*
G37*
G36*
X66929D02*
X65420Y141443D01*
X63970Y141003D01*
X62633Y140288D01*
X61461Y139327D01*
X60499Y138155D01*
X59785Y136818D01*
X59344Y135367D01*
X59196Y133858D01*
X59344Y132350D01*
X59785Y130899D01*
X60499Y129562D01*
X61461Y128390D01*
X62633Y127428D01*
X63970Y126714D01*
X65420Y126274D01*
X66929Y126125D01*
X68438Y126274D01*
X69889Y126714D01*
X71226Y127428D01*
X72397Y128390D01*
X73359Y129562D01*
X74074Y130899D01*
X74514Y132350D01*
X74662Y133858D01*
X74514Y135367D01*
X74074Y136818D01*
X73359Y138155D01*
X72397Y139327D01*
X71226Y140288D01*
X69889Y141003D01*
X68438Y141443D01*
X66929Y141592D01*
D02*
G37*
G36*
X212598Y141198D02*
X211090Y141049D01*
X209639Y140609D01*
X208302Y139895D01*
X207130Y138933D01*
X206168Y137761D01*
X205454Y136424D01*
X205014Y134973D01*
X204865Y133465D01*
X205014Y131956D01*
X205454Y130505D01*
X206168Y129168D01*
X207130Y127996D01*
X208302Y127035D01*
X209639Y126320D01*
X211090Y125880D01*
X212598Y125731D01*
X214107Y125880D01*
X215558Y126320D01*
X216895Y127035D01*
X218067Y127996D01*
X219028Y129168D01*
X219743Y130505D01*
X220183Y131956D01*
X220332Y133465D01*
X220183Y134973D01*
X219743Y136424D01*
X219028Y137761D01*
X218067Y138933D01*
X216895Y139895D01*
X215558Y140609D01*
X214107Y141049D01*
X212598Y141198D01*
D02*
G37*
G36*
X236221D02*
X234712Y141049D01*
X233261Y140609D01*
X231924Y139895D01*
X230752Y138933D01*
X229790Y137761D01*
X229076Y136424D01*
X228636Y134973D01*
X228487Y133465D01*
X228636Y131956D01*
X229076Y130505D01*
X229790Y129168D01*
X230752Y127996D01*
X231924Y127035D01*
X233261Y126320D01*
X234712Y125880D01*
X236221Y125731D01*
X237729Y125880D01*
X239180Y126320D01*
X240517Y127035D01*
X241689Y127996D01*
X242651Y129168D01*
X243365Y130505D01*
X243805Y131956D01*
X243954Y133465D01*
X243805Y134973D01*
X243365Y136424D01*
X242651Y137761D01*
X241689Y138933D01*
X240517Y139895D01*
X239180Y140609D01*
X237729Y141049D01*
X236221Y141198D01*
D02*
G37*
G36*
X551181D02*
X549672Y141049D01*
X548222Y140609D01*
X546885Y139895D01*
X545713Y138933D01*
X544751Y137761D01*
X544036Y136424D01*
X543596Y134973D01*
X543448Y133465D01*
X543596Y131956D01*
X544036Y130505D01*
X544751Y129168D01*
X545713Y127996D01*
X546885Y127035D01*
X548222Y126320D01*
X549672Y125880D01*
X551181Y125731D01*
X552690Y125880D01*
X554141Y126320D01*
X555478Y127035D01*
X556649Y127996D01*
X557611Y129168D01*
X558326Y130505D01*
X558766Y131956D01*
X558914Y133465D01*
X558766Y134973D01*
X558326Y136424D01*
X557611Y137761D01*
X556649Y138933D01*
X555478Y139895D01*
X554141Y140609D01*
X552690Y141049D01*
X551181Y141198D01*
D02*
G37*
%LPD*%
D10*
X218000Y65500D02*
X222000Y61500D01*
X204000Y65500D02*
X218000D01*
X196000Y40000D02*
X208500D01*
X574016Y31496D02*
G03*
X574016Y31496I-18898J0D01*
G01*
Y86614D02*
G03*
X574016Y86614I-18898J0D01*
G01*
D11*
X267500Y10500D02*
Y39500D01*
X246500Y55500D02*
X251500D01*
X267500Y39500D01*
D12*
X337500Y41000D02*
Y62500D01*
D13*
X404449Y26654D02*
X459567D01*
Y42402D01*
X463504D01*
X487126D01*
Y121142D01*
X376890D02*
X487126D01*
X376890Y42402D02*
Y121142D01*
Y42402D02*
X404449D01*
Y26654D02*
Y42402D01*
X0Y0D02*
Y165354D01*
X610236D01*
Y0D02*
Y165354D01*
X0Y0D02*
X610236D01*
D14*
X188976Y133858D02*
D03*
X165354D02*
D03*
X141732D02*
D03*
X118110D02*
D03*
X90551D02*
D03*
X66929D02*
D03*
X43307D02*
D03*
X19685D02*
D03*
X212598Y133465D02*
D03*
X236221D02*
D03*
X262992Y133465D02*
D03*
X286614D02*
D03*
X310236D02*
D03*
X333858D02*
D03*
X551181Y133465D02*
D03*
D15*
X447008Y135827D02*
D03*
X437008D02*
D03*
X427008D02*
D03*
D16*
X417008D02*
D03*
D17*
X222000Y61500D02*
D03*
X204000Y65500D02*
D03*
X196000Y40000D02*
D03*
X208500D02*
D03*
D18*
X267500Y10500D02*
D03*
X246500Y55500D02*
D03*
X267500Y39500D02*
D03*
D19*
X337500Y41000D02*
D03*
Y62500D02*
D03*
M02*
