%FSLAX25Y25*%
%MOIN*%
G70*
G01*
G75*
G04 Layer_Color=16776960*
%ADD10C,0.01000*%
%ADD11C,0.04000*%
%ADD12C,0.02000*%
%ADD13C,0.00787*%
%ADD14C,0.12992*%
%ADD15O,0.05600X0.06400*%
%ADD16R,0.05600X0.06400*%
%ADD17C,0.04000*%
%ADD18C,0.05600*%
%ADD19C,0.05000*%
%ADD20R,0.06299X0.05512*%
%ADD21R,0.06000X0.05000*%
%ADD22R,0.05000X0.05000*%
%ADD23R,0.05000X0.05000*%
%ADD24R,0.11811X0.05906*%
%ADD25R,0.15748X0.07874*%
%ADD26R,0.05906X0.01181*%
%ADD27R,0.05000X0.06000*%
%ADD28R,0.04921X0.05118*%
%ADD29C,0.06000*%
%ADD30C,0.01200*%
%ADD31C,0.01600*%
%ADD32O,0.06400X0.07200*%
%ADD33R,0.06400X0.07200*%
%ADD34R,0.40000X0.14500*%
%ADD35R,0.07099X0.06312*%
%ADD36R,0.06800X0.05800*%
%ADD37R,0.05800X0.05800*%
%ADD38R,0.05800X0.05800*%
%ADD39R,0.12611X0.06706*%
%ADD40R,0.16548X0.08674*%
%ADD41R,0.06706X0.01981*%
%ADD42R,0.05800X0.06800*%
%ADD43R,0.05721X0.05918*%
%ADD44C,0.00800*%
D10*
X574016Y31496D02*
G03*
X574016Y31496I-18898J0D01*
G01*
Y86614D02*
G03*
X574016Y86614I-18898J0D01*
G01*
X164500Y41900D02*
Y56600D01*
X163600Y41000D02*
X164500Y41900D01*
X157400Y41000D02*
X163600D01*
X156400Y42000D02*
X157400Y41000D01*
X156400Y42000D02*
Y56500D01*
X163600Y57500D02*
X164500Y56600D01*
X157400Y57500D02*
X163600D01*
X156400Y56500D02*
X157400Y57500D01*
X204000Y22000D02*
Y30100D01*
X187500Y22000D02*
X204000D01*
X187500D02*
Y30100D01*
X204000D01*
X273900Y65000D02*
X282000D01*
Y48500D02*
Y65000D01*
X273900Y48500D02*
X282000D01*
X273900D02*
Y65000D01*
X264400D02*
X272500D01*
Y48500D02*
Y65000D01*
X264400Y48500D02*
X272500D01*
X264400D02*
Y65000D01*
X574016Y31496D02*
G03*
X574016Y31496I-18898J0D01*
G01*
Y86614D02*
G03*
X574016Y86614I-18898J0D01*
G01*
D13*
X194095Y140157D02*
Y146850D01*
X183858Y140157D02*
Y146850D01*
X194095Y119291D02*
Y128347D01*
X183858Y119291D02*
Y128347D01*
X170473Y140157D02*
Y146850D01*
X160236Y140157D02*
Y146850D01*
X170473Y119291D02*
Y128347D01*
X160236Y119291D02*
Y128347D01*
X146850Y140157D02*
Y146850D01*
X136614Y140157D02*
Y146850D01*
X146850Y119291D02*
Y128347D01*
X136614Y119291D02*
Y128347D01*
X123228Y140157D02*
Y146850D01*
X112992Y140157D02*
Y146850D01*
X123228Y119291D02*
Y128347D01*
X112992Y119291D02*
Y128347D01*
X95669Y140157D02*
Y146850D01*
X85433Y140157D02*
Y146850D01*
X95669Y119291D02*
Y128347D01*
X85433Y119291D02*
Y128347D01*
X72047Y140157D02*
Y146850D01*
X61811Y140157D02*
Y146850D01*
X72047Y119291D02*
Y128347D01*
X61811Y119291D02*
Y128347D01*
X48425Y140157D02*
Y146850D01*
X38189Y140157D02*
Y146850D01*
X48425Y119291D02*
Y128347D01*
X38189Y119291D02*
Y128347D01*
X24803Y140157D02*
Y146850D01*
X14567Y140157D02*
Y146850D01*
X24803Y119291D02*
Y128347D01*
X14567Y119291D02*
Y128347D01*
X217717Y139764D02*
Y146457D01*
X207480Y139764D02*
Y146457D01*
X217717Y118898D02*
Y127953D01*
X207480Y118898D02*
Y127953D01*
X241339Y139764D02*
Y146457D01*
X231102Y139764D02*
Y146457D01*
X241339Y118898D02*
Y127953D01*
X231102Y118898D02*
Y127953D01*
X268110Y139764D02*
Y146457D01*
X257874Y139764D02*
Y146457D01*
X268110Y118898D02*
Y127953D01*
X257874Y118898D02*
Y127953D01*
X291732Y139764D02*
Y146457D01*
X281496Y139764D02*
Y146457D01*
X291732Y118898D02*
Y127953D01*
X281496Y118898D02*
Y127953D01*
X315354Y139764D02*
Y146457D01*
X305118Y139764D02*
Y146457D01*
X315354Y118898D02*
Y127953D01*
X305118Y118898D02*
Y127953D01*
X338976Y139764D02*
Y146457D01*
X328740Y139764D02*
Y146457D01*
X338976Y118898D02*
Y127953D01*
X328740Y118898D02*
Y127953D01*
X556299Y139764D02*
Y146457D01*
X546063Y139764D02*
Y146457D01*
X556299Y118898D02*
Y127953D01*
X546063Y118898D02*
Y127953D01*
X268000Y15000D02*
Y24000D01*
X287000Y15000D02*
Y24000D01*
X268000D02*
X284362D01*
X270976Y15000D02*
X287000D01*
X268000Y25000D02*
Y34000D01*
X287000Y25000D02*
Y34000D01*
X268000D02*
X284362D01*
X270976Y25000D02*
X287000D01*
X300787Y65905D02*
X322835D01*
X301181Y27520D02*
X323228D01*
X322835Y59606D02*
Y65905D01*
X301181Y27520D02*
Y33819D01*
X300787Y65905D02*
Y68268D01*
X307087D01*
Y65905D02*
Y68268D01*
X211709Y79362D02*
Y80937D01*
X180213D02*
X211709D01*
X180213Y79362D02*
Y80937D01*
Y39795D02*
Y41370D01*
Y39795D02*
X211709D01*
Y41370D01*
Y80937D02*
Y82906D01*
X207772D02*
X211709D01*
X207772Y80937D02*
Y82906D01*
X343925Y90772D02*
X352925D01*
X343925Y71772D02*
X352925D01*
Y74410D02*
Y90772D01*
X343925Y71772D02*
Y87795D01*
X355736Y90772D02*
X364736D01*
X355736Y71772D02*
X364736D01*
Y74410D02*
Y90772D01*
X355736Y71772D02*
Y87795D01*
X404449Y26654D02*
X459567D01*
Y42402D01*
X463504D01*
X487126D01*
Y121142D01*
X376890D02*
X487126D01*
X376890Y42402D02*
Y121142D01*
Y42402D02*
X404449D01*
Y26654D02*
Y42402D01*
X0Y0D02*
Y165354D01*
X610236D01*
Y0D02*
Y165354D01*
X0Y0D02*
X610236D01*
D30*
X259768Y16500D02*
X261000Y17732D01*
X252000Y17563D02*
Y34492D01*
Y17563D02*
X253063Y16500D01*
X259768D01*
X252000Y34492D02*
X253008Y35500D01*
X259941D01*
X261000Y34441D01*
Y17732D02*
Y34441D01*
X248768Y16500D02*
X250000Y17732D01*
X241000Y17563D02*
Y34492D01*
Y17563D02*
X242063Y16500D01*
X248768D01*
X241000Y34492D02*
X242008Y35500D01*
X248941D01*
X250000Y34441D01*
Y17732D02*
Y34441D01*
X184776Y100039D02*
Y106439D01*
Y100039D02*
X193176D01*
X184776Y110339D02*
Y116439D01*
X193176D01*
Y100039D02*
Y116439D01*
X161154Y100039D02*
Y106439D01*
Y100039D02*
X169554D01*
X161154Y110339D02*
Y116439D01*
X169554D01*
Y100039D02*
Y116439D01*
X137532Y100039D02*
Y106439D01*
Y100039D02*
X145932D01*
X137532Y110339D02*
Y116439D01*
X145932D01*
Y100039D02*
Y116439D01*
X113910Y100039D02*
Y106439D01*
Y100039D02*
X122310D01*
X113910Y110339D02*
Y116439D01*
X122310D01*
Y100039D02*
Y116439D01*
X86351Y100039D02*
Y106439D01*
Y100039D02*
X94751D01*
X86351Y110339D02*
Y116439D01*
X94751D01*
Y100039D02*
Y116439D01*
X62729Y100039D02*
Y106439D01*
Y100039D02*
X71129D01*
X62729Y110339D02*
Y116439D01*
X71129D01*
Y100039D02*
Y116439D01*
X39107Y100039D02*
Y106439D01*
Y100039D02*
X47507D01*
X39107Y110339D02*
Y116439D01*
X47507D01*
Y100039D02*
Y116439D01*
X15485Y100039D02*
Y106439D01*
Y100039D02*
X23885D01*
X15485Y110339D02*
Y116439D01*
X23885D01*
Y100039D02*
Y116439D01*
X208398Y100039D02*
Y106439D01*
Y100039D02*
X216798D01*
X208398Y110339D02*
Y116439D01*
X216798D01*
Y100039D02*
Y116439D01*
X232020Y100039D02*
Y106439D01*
Y100039D02*
X240421D01*
X232020Y110339D02*
Y116439D01*
X240421D01*
Y100039D02*
Y116439D01*
X258800Y100208D02*
Y106608D01*
Y100208D02*
X267200D01*
X258800Y110508D02*
Y116608D01*
X267200D01*
Y100208D02*
Y116608D01*
X282800Y100208D02*
Y106608D01*
Y100208D02*
X291200D01*
X282800Y110508D02*
Y116608D01*
X291200D01*
Y100208D02*
Y116608D01*
X306300Y99708D02*
Y106108D01*
Y99708D02*
X314700D01*
X306300Y110008D02*
Y116108D01*
X314700D01*
Y99708D02*
Y116108D01*
X329800Y100208D02*
Y106608D01*
Y100208D02*
X338200D01*
X329800Y110508D02*
Y116608D01*
X338200D01*
Y100208D02*
Y116608D01*
X571700Y128892D02*
Y135292D01*
X563300D02*
X571700D01*
Y118892D02*
Y124992D01*
X563300Y118892D02*
X571700D01*
X563300D02*
Y135292D01*
X228000Y65768D02*
X229232Y67000D01*
X237000Y49008D02*
Y65937D01*
X235937Y67000D02*
X237000Y65937D01*
X229232Y67000D02*
X235937D01*
X235992Y48000D02*
X237000Y49008D01*
X229059Y48000D02*
X235992D01*
X228000Y49059D02*
X229059Y48000D01*
X228000Y49059D02*
Y65768D01*
D44*
X183858Y119291D02*
X194095D01*
X188976Y148425D02*
X192520D01*
X192520D02*
X194095Y146850D01*
X185433Y148425D02*
X188976D01*
X183858Y146850D02*
X185433Y148425D01*
X160236Y119291D02*
X170473D01*
X165354Y148425D02*
X168898D01*
X168898D02*
X170473Y146850D01*
X161811Y148425D02*
X165354D01*
X160236Y146850D02*
X161811Y148425D01*
X136614Y119291D02*
X146850D01*
X141732Y148425D02*
X145276D01*
X145276D02*
X146850Y146850D01*
X138189Y148425D02*
X141732D01*
X136614Y146850D02*
X138189Y148425D01*
X112992Y119291D02*
X123228D01*
X118110Y148425D02*
X121653D01*
X121653D02*
X123228Y146850D01*
X114567Y148425D02*
X118110D01*
X112992Y146850D02*
X114567Y148425D01*
X85433Y119291D02*
X95669D01*
X90551Y148425D02*
X94095D01*
X94095D02*
X95669Y146850D01*
X87008Y148425D02*
X90551D01*
X85433Y146850D02*
X87008Y148425D01*
X61811Y119291D02*
X72047D01*
X66929Y148425D02*
X70472D01*
X70472D02*
X72047Y146850D01*
X63386Y148425D02*
X66929D01*
X61811Y146850D02*
X63386Y148425D01*
X38189Y119291D02*
X48425D01*
X43307Y148425D02*
X46850D01*
X46850D02*
X48425Y146850D01*
X39764Y148425D02*
X43307D01*
X38189Y146850D02*
X39764Y148425D01*
X14567Y119291D02*
X24803D01*
X19685Y148425D02*
X23228D01*
X23228D02*
X24803Y146850D01*
X16142Y148425D02*
X19685D01*
X14567Y146850D02*
X16142Y148425D01*
X207480Y118898D02*
X217717D01*
X212598Y148031D02*
X216142D01*
X216142D02*
X217717Y146457D01*
X209055Y148031D02*
X212598D01*
X207480Y146457D02*
X209055Y148031D01*
X231102Y118898D02*
X241339D01*
X236221Y148031D02*
X239764D01*
X239764D02*
X241339Y146457D01*
X232677Y148031D02*
X236221D01*
X231102Y146457D02*
X232677Y148031D01*
X257874Y118898D02*
X268110D01*
X262992Y148031D02*
X266535D01*
X266535D02*
X268110Y146457D01*
X259449Y148031D02*
X262992D01*
X257874Y146457D02*
X259449Y148031D01*
X281496Y118898D02*
X291732D01*
X286614Y148031D02*
X290158D01*
X290158D02*
X291732Y146457D01*
X283071Y148031D02*
X286614D01*
X281496Y146457D02*
X283071Y148031D01*
X305118Y118898D02*
X315354D01*
X310236Y148031D02*
X313779D01*
X313779D02*
X315354Y146457D01*
X306693Y148031D02*
X310236D01*
X305118Y146457D02*
X306693Y148031D01*
X328740Y118898D02*
X338976D01*
X333858Y148031D02*
X337402D01*
X337402D02*
X338976Y146457D01*
X330315Y148031D02*
X333858D01*
X328740Y146457D02*
X330315Y148031D01*
X546063Y118898D02*
X556299D01*
X551181Y148031D02*
X554724D01*
X554724D02*
X556299Y146457D01*
X547638Y148031D02*
X551181D01*
X546063Y146457D02*
X547638Y148031D01*
X542323Y44291D02*
X567913D01*
Y18701D02*
Y44291D01*
X542323Y18701D02*
X567913D01*
X542323D02*
Y44291D01*
Y99410D02*
X567913D01*
Y73819D02*
Y99410D01*
X542323Y73819D02*
X567913D01*
X542323D02*
Y99410D01*
M02*
