%FSLAX25Y25*%
%MOIN*%
G70*
G01*
G75*
G04 Layer_Color=65535*
%ADD10C,0.01000*%
%ADD11C,0.04000*%
%ADD12C,0.02000*%
%ADD13C,0.00787*%
%ADD14C,0.12992*%
%ADD15O,0.05600X0.06400*%
%ADD16R,0.05600X0.06400*%
%ADD17C,0.04000*%
%ADD18C,0.05600*%
%ADD19C,0.05000*%
%ADD20R,0.06299X0.05512*%
%ADD21R,0.06000X0.05000*%
%ADD22R,0.05000X0.05000*%
%ADD23R,0.05000X0.05000*%
%ADD24R,0.11811X0.05906*%
%ADD25R,0.15748X0.07874*%
%ADD26R,0.05906X0.01181*%
%ADD27R,0.05000X0.06000*%
%ADD28R,0.04921X0.05118*%
%ADD29C,0.06000*%
%ADD30C,0.01200*%
%ADD31C,0.01600*%
D10*
X384764Y132953D02*
G03*
X384764Y132953I-3937J0D01*
G01*
Y32559D02*
G03*
X384764Y32559I-3937J0D01*
G01*
X487126Y34528D02*
G03*
X487126Y34528I-3937J0D01*
G01*
Y132953D02*
G03*
X487126Y132953I-3937J0D01*
G01*
X574016Y31496D02*
G03*
X574016Y31496I-18898J0D01*
G01*
Y86614D02*
G03*
X574016Y86614I-18898J0D01*
G01*
D13*
X432008Y140827D02*
X491063D01*
Y26654D02*
Y140827D01*
X372953Y26654D02*
X491063D01*
X372953D02*
Y140827D01*
X432008D01*
X412008Y130827D02*
Y140827D01*
Y130827D02*
X452008D01*
Y140827D01*
X432008D02*
X452008D01*
X422008Y130827D02*
Y140827D01*
X404449Y26654D02*
X459567D01*
Y42402D01*
X463504D01*
X487126D01*
Y121142D01*
X376890D02*
X487126D01*
X376890Y42402D02*
Y121142D01*
Y42402D02*
X404449D01*
Y26654D02*
Y42402D01*
X0Y0D02*
Y165354D01*
X610236D01*
Y0D02*
Y165354D01*
X0Y0D02*
X610236D01*
D31*
X574803Y70990D02*
Y62992D01*
Y65658D01*
X580135Y70990D01*
X576136Y66991D01*
X580135Y62992D01*
X588132Y70990D02*
X582801D01*
Y62992D01*
X588132D01*
X582801Y66991D02*
X585466D01*
X590798Y70990D02*
Y69657D01*
X593464Y66991D01*
X596130Y69657D01*
Y70990D01*
X593464Y66991D02*
Y62992D01*
X604127D02*
X598795D01*
X604127Y68324D01*
Y69657D01*
X602794Y70990D01*
X600128D01*
X598795Y69657D01*
X578740Y19808D02*
Y11811D01*
Y14477D01*
X584072Y19808D01*
X580073Y15810D01*
X584072Y11811D01*
X592069Y19808D02*
X586738D01*
Y11811D01*
X592069D01*
X586738Y15810D02*
X589403D01*
X594735Y19808D02*
Y18475D01*
X597401Y15810D01*
X600067Y18475D01*
Y19808D01*
X597401Y15810D02*
Y11811D01*
X602732D02*
X605398D01*
X604065D01*
Y19808D01*
X602732Y18475D01*
X542126Y121777D02*
X547458D01*
Y120444D01*
X542126Y115112D01*
Y113779D01*
X547458D01*
X550123D02*
Y119111D01*
X552789Y121777D01*
X555455Y119111D01*
Y113779D01*
Y117778D01*
X550123D01*
X563452Y120444D02*
X562119Y121777D01*
X559454D01*
X558121Y120444D01*
Y119111D01*
X559454Y117778D01*
X562119D01*
X563452Y116445D01*
Y115112D01*
X562119Y113779D01*
X559454D01*
X558121Y115112D01*
X339764Y94882D02*
X331766D01*
Y98881D01*
X333099Y100214D01*
X335765D01*
X337098Y98881D01*
Y94882D01*
Y97548D02*
X339764Y100214D01*
X331766Y108211D02*
Y102879D01*
X339764D01*
Y108211D01*
X335765Y102879D02*
Y105545D01*
X333099Y116208D02*
X331766Y114875D01*
Y112210D01*
X333099Y110877D01*
X334432D01*
X335765Y112210D01*
Y114875D01*
X337098Y116208D01*
X338431D01*
X339764Y114875D01*
Y112210D01*
X338431Y110877D01*
X339764Y118874D02*
Y121540D01*
Y120207D01*
X331766D01*
X333099Y118874D01*
X314961Y83858D02*
X306963D01*
Y87857D01*
X308296Y89190D01*
X310962D01*
X312295Y87857D01*
Y83858D01*
Y86524D02*
X314961Y89190D01*
Y91856D02*
X309629D01*
X306963Y94521D01*
X309629Y97187D01*
X314961D01*
X310962D01*
Y91856D01*
X306963Y99853D02*
X314961D01*
Y103852D01*
X313628Y105185D01*
X308296D01*
X306963Y103852D01*
Y99853D01*
Y107851D02*
Y110516D01*
Y109183D01*
X314961D01*
Y107851D01*
Y110516D01*
X306963Y118514D02*
Y115848D01*
X308296Y114515D01*
X313628D01*
X314961Y115848D01*
Y118514D01*
X313628Y119847D01*
X308296D01*
X306963Y118514D01*
X279528Y106299D02*
Y114297D01*
X283526D01*
X284859Y112964D01*
Y110298D01*
X283526Y108965D01*
X279528D01*
X292857Y112964D02*
X291524Y114297D01*
X288858D01*
X287525Y112964D01*
Y107632D01*
X288858Y106299D01*
X291524D01*
X292857Y107632D01*
X255906Y114297D02*
Y106299D01*
Y108965D01*
X261237Y114297D01*
X257238Y110298D01*
X261237Y106299D01*
X263903D02*
Y114297D01*
X267902D01*
X269234Y112964D01*
Y110298D01*
X267902Y108965D01*
X263903D01*
X233678Y114297D02*
X228346D01*
Y110298D01*
X231012D01*
X228346D01*
Y106299D01*
X241675D02*
X236344D01*
X241675Y111631D01*
Y112964D01*
X240343Y114297D01*
X237677D01*
X236344Y112964D01*
X213993Y113903D02*
X208661D01*
Y109904D01*
X211327D01*
X208661D01*
Y105905D01*
X216659D02*
X219325D01*
X217992D01*
Y113903D01*
X216659Y112570D01*
X192913Y98425D02*
X184916D01*
Y102424D01*
X186249Y103757D01*
X188915D01*
X190248Y102424D01*
Y98425D01*
X184916Y106423D02*
X192913D01*
X190248D01*
X184916Y111754D01*
X188915Y107755D01*
X192913Y111754D01*
X186249Y114420D02*
X184916Y115753D01*
Y118419D01*
X186249Y119752D01*
X187582D01*
X188915Y118419D01*
X190248Y119752D01*
X191580D01*
X192913Y118419D01*
Y115753D01*
X191580Y114420D01*
X190248D01*
X188915Y115753D01*
X187582Y114420D01*
X186249D01*
X188915Y115753D02*
Y118419D01*
X169291Y98425D02*
X161294D01*
Y102424D01*
X162627Y103757D01*
X165293D01*
X166625Y102424D01*
Y98425D01*
X161294Y106423D02*
X169291D01*
X166625D01*
X161294Y111754D01*
X165293Y107755D01*
X169291Y111754D01*
X161294Y114420D02*
Y119752D01*
X162627D01*
X167958Y114420D01*
X169291D01*
X145669Y98425D02*
X137672D01*
Y102424D01*
X139005Y103757D01*
X141671D01*
X143003Y102424D01*
Y98425D01*
X137672Y106423D02*
X145669D01*
X143003D01*
X137672Y111754D01*
X141671Y107755D01*
X145669Y111754D01*
X137672Y119752D02*
X139005Y117086D01*
X141671Y114420D01*
X144336D01*
X145669Y115753D01*
Y118419D01*
X144336Y119752D01*
X143003D01*
X141671Y118419D01*
Y114420D01*
X122047Y98425D02*
X114050D01*
Y102424D01*
X115383Y103757D01*
X118049D01*
X119381Y102424D01*
Y98425D01*
X114050Y106423D02*
X122047D01*
X119381D01*
X114050Y111754D01*
X118049Y107755D01*
X122047Y111754D01*
X114050Y119752D02*
Y114420D01*
X118049D01*
X116716Y117086D01*
Y118419D01*
X118049Y119752D01*
X120714D01*
X122047Y118419D01*
Y115753D01*
X120714Y114420D01*
X94488Y98425D02*
X86491D01*
Y102424D01*
X87824Y103757D01*
X90490D01*
X91822Y102424D01*
Y98425D01*
X86491Y106423D02*
X94488D01*
X91822D01*
X86491Y111754D01*
X90490Y107755D01*
X94488Y111754D01*
Y118419D02*
X86491D01*
X90490Y114420D01*
Y119752D01*
X70866Y98425D02*
X62869D01*
Y102424D01*
X64202Y103757D01*
X66867D01*
X68200Y102424D01*
Y98425D01*
X62869Y106423D02*
X70866D01*
X68200D01*
X62869Y111754D01*
X66867Y107755D01*
X70866Y111754D01*
X64202Y114420D02*
X62869Y115753D01*
Y118419D01*
X64202Y119752D01*
X65535D01*
X66867Y118419D01*
Y117086D01*
Y118419D01*
X68200Y119752D01*
X69533D01*
X70866Y118419D01*
Y115753D01*
X69533Y114420D01*
X47244Y98425D02*
X39247D01*
Y102424D01*
X40580Y103757D01*
X43245D01*
X44578Y102424D01*
Y98425D01*
X39247Y106423D02*
X47244D01*
X44578D01*
X39247Y111754D01*
X43245Y107755D01*
X47244Y111754D01*
Y119752D02*
Y114420D01*
X41912Y119752D01*
X40580D01*
X39247Y118419D01*
Y115753D01*
X40580Y114420D01*
X23622Y98425D02*
X15625D01*
Y102424D01*
X16958Y103757D01*
X19623D01*
X20956Y102424D01*
Y98425D01*
X15625Y106423D02*
X23622D01*
X20956D01*
X15625Y111754D01*
X19623Y107755D01*
X23622Y111754D01*
Y114420D02*
Y117086D01*
Y115753D01*
X15625D01*
X16958Y114420D01*
M02*
