%FSLAX25Y25*%
%MOIN*%
G70*
G01*
G75*
G04 Layer_Color=16776960*
%ADD10R,0.03937X0.03937*%
%ADD11C,0.03937*%
%ADD12R,0.03150X0.03150*%
%ADD13R,0.03150X0.03150*%
%ADD14R,0.00984X0.06299*%
%ADD15R,0.06299X0.00984*%
%ADD16O,0.06299X0.00984*%
%ADD17O,0.03937X0.03937*%
%ADD18R,0.07087X0.04724*%
%ADD19O,0.04000X0.01200*%
%ADD20R,0.04000X0.01200*%
%ADD21R,0.03600X0.03600*%
%ADD22R,0.03600X0.05000*%
%ADD23R,0.09449X0.03937*%
%ADD24R,0.09449X0.12992*%
%ADD25C,0.01000*%
%ADD26C,0.02000*%
%ADD27C,0.04000*%
%ADD28C,0.00787*%
%ADD29C,0.06299*%
%ADD30C,0.03937*%
%ADD31O,0.15748X0.06299*%
%ADD32C,0.06000*%
%ADD33R,0.06000X0.06000*%
%ADD34C,0.11811*%
%ADD35C,0.05512*%
%ADD36C,0.02500*%
%ADD37C,0.04000*%
%ADD38C,0.00984*%
%ADD39C,0.00800*%
%ADD40C,0.01200*%
%ADD41R,0.00000X0.00000*%
%ADD42R,0.07874X0.07874*%
%ADD43C,0.07874*%
%ADD44R,0.03950X0.03950*%
%ADD45R,0.03950X0.03950*%
%ADD46R,0.02184X0.07499*%
%ADD47R,0.07499X0.02184*%
%ADD48O,0.07499X0.02184*%
%ADD49O,0.07874X0.07874*%
%ADD50R,0.07887X0.05524*%
%ADD51O,0.04800X0.02000*%
%ADD52R,0.04800X0.02000*%
%ADD53R,0.04400X0.04400*%
%ADD54R,0.04400X0.05800*%
%ADD55R,0.10249X0.04737*%
%ADD56R,0.10249X0.13792*%
%ADD57C,0.07099*%
%ADD58C,0.04737*%
%ADD59O,0.16548X0.07099*%
%ADD60C,0.06800*%
%ADD61R,0.06800X0.06800*%
%ADD62C,0.12611*%
%ADD63R,0.00129X0.02943*%
%ADD64R,0.00129X0.04972*%
%ADD65R,0.00129X0.06543*%
%ADD66R,0.00129X0.07886*%
%ADD67R,0.00129X0.08900*%
%ADD68R,0.00129X0.09686*%
%ADD69R,0.00129X0.10700*%
%ADD70R,0.00129X0.11486*%
%ADD71R,0.00129X0.11943*%
%ADD72R,0.00129X0.12729*%
%ADD73R,0.00129X0.13286*%
%ADD74R,0.00129X0.13972*%
%ADD75R,0.00129X0.14529*%
%ADD76R,0.00129X0.15086*%
%ADD77R,0.00129X0.15543*%
%ADD78R,0.00129X0.16100*%
%ADD79R,0.00129X0.06914*%
%ADD80R,0.00129X0.06957*%
%ADD81R,0.00129X0.06186*%
%ADD82R,0.00129X0.06214*%
%ADD83R,0.00129X0.05514*%
%ADD84R,0.00129X0.05543*%
%ADD85R,0.00129X0.05300*%
%ADD86R,0.00129X0.04986*%
%ADD87R,0.00129X0.05057*%
%ADD88R,0.00129X0.04800*%
%ADD89R,0.00129X0.04786*%
%ADD90R,0.00129X0.04614*%
%ADD91R,0.00129X0.04643*%
%ADD92R,0.00129X0.04329*%
%ADD93R,0.00129X0.04372*%
%ADD94R,0.00129X0.04372*%
%ADD95R,0.00129X0.04329*%
%ADD96R,0.00129X0.04086*%
%ADD97R,0.00129X0.04157*%
%ADD98R,0.00129X0.04029*%
%ADD99R,0.00129X0.03986*%
%ADD100R,0.00129X0.03972*%
%ADD101R,0.00129X0.03943*%
%ADD102R,0.00129X0.03814*%
%ADD103R,0.00129X0.03872*%
%ADD104R,0.00129X0.03757*%
%ADD105R,0.00129X0.03700*%
%ADD106R,0.00129X0.03643*%
%ADD107R,0.00129X0.03586*%
%ADD108R,0.00129X0.03486*%
%ADD109R,0.00129X0.03514*%
%ADD110R,0.00129X0.03457*%
%ADD111R,0.00129X0.03443*%
%ADD112R,0.00129X0.03300*%
%ADD113R,0.00129X0.03372*%
%ADD114R,0.00129X0.03372*%
%ADD115R,0.00129X0.03300*%
%ADD116R,0.00129X0.03214*%
%ADD117R,0.00129X0.03229*%
%ADD118R,0.00129X0.03186*%
%ADD119R,0.00129X0.03257*%
%ADD120R,0.00129X0.03129*%
%ADD121R,0.00129X0.03086*%
%ADD122R,0.00129X0.03100*%
%ADD123R,0.00129X0.03114*%
%ADD124R,0.00129X0.03072*%
%ADD125R,0.00129X0.03043*%
%ADD126R,0.00129X0.02914*%
%ADD127R,0.00129X0.02972*%
%ADD128R,0.00129X0.02986*%
%ADD129R,0.00129X0.03000*%
%ADD130R,0.00129X0.02957*%
%ADD131R,0.00129X0.02929*%
%ADD132R,0.00129X0.02843*%
%ADD133R,0.00129X0.02814*%
%ADD134R,0.00129X0.02786*%
%ADD135R,0.00129X0.02872*%
%ADD136R,0.00129X0.02657*%
%ADD137R,0.00129X0.02672*%
%ADD138R,0.00129X0.02729*%
%ADD139R,0.00129X0.02700*%
%ADD140R,0.00129X0.02743*%
%ADD141R,0.00129X0.02686*%
%ADD142R,0.00129X0.02614*%
%ADD143R,0.00129X0.02586*%
%ADD144R,0.00129X0.02686*%
%ADD145R,0.00129X0.02743*%
%ADD146R,0.00129X0.02557*%
%ADD147R,0.00129X0.02543*%
%ADD148R,0.00129X0.02529*%
%ADD149R,0.00129X0.02572*%
%ADD150R,0.00129X0.02600*%
%ADD151R,0.00129X0.02472*%
%ADD152R,0.00129X0.02400*%
%ADD153R,0.00129X0.02443*%
%ADD154R,0.00129X0.02429*%
%ADD155R,0.00129X0.02414*%
%ADD156R,0.00129X0.02457*%
%ADD157R,0.00129X0.02486*%
%ADD158R,0.00257X0.02457*%
%ADD159R,0.00129X0.02814*%
%ADD160R,0.00129X0.02300*%
%ADD161R,0.00129X0.03343*%
%ADD162R,0.00129X0.03572*%
%ADD163R,0.00129X0.02272*%
%ADD164R,0.00257X0.02343*%
%ADD165R,0.00129X0.04100*%
%ADD166R,0.00129X0.04200*%
%ADD167R,0.00257X0.02314*%
%ADD168R,0.00129X0.04629*%
%ADD169R,0.00129X0.06600*%
%ADD170R,0.03986X0.02814*%
%ADD171R,0.00129X0.04729*%
%ADD172R,0.00257X0.02286*%
%ADD173R,0.00129X0.07629*%
%ADD174R,0.00129X0.05157*%
%ADD175R,0.00129X0.08014*%
%ADD176R,0.00129X0.05257*%
%ADD177R,0.00129X0.02357*%
%ADD178R,0.00129X0.08400*%
%ADD179R,0.00129X0.05686*%
%ADD180R,0.00129X0.02229*%
%ADD181R,0.00129X0.08657*%
%ADD182R,0.00129X0.05786*%
%ADD183R,0.00129X0.02329*%
%ADD184R,0.00129X0.08786*%
%ADD185R,0.00129X0.06014*%
%ADD186R,0.00129X0.02200*%
%ADD187R,0.00129X0.09043*%
%ADD188R,0.00129X0.02214*%
%ADD189R,0.00129X0.09172*%
%ADD190R,0.00129X0.03714*%
%ADD191R,0.00129X0.02343*%
%ADD192R,0.00257X0.02172*%
%ADD193R,0.00129X0.09300*%
%ADD194R,0.00129X0.03886*%
%ADD195R,0.00257X0.02143*%
%ADD196R,0.00129X0.09429*%
%ADD197R,0.00129X0.03729*%
%ADD198R,0.00257X0.02143*%
%ADD199R,0.00129X0.09557*%
%ADD200R,0.00129X0.03700*%
%ADD201R,0.00257X0.02172*%
%ADD202R,0.00129X0.03743*%
%ADD203R,0.00129X0.09814*%
%ADD204R,0.00257X0.02214*%
%ADD205R,0.00257X0.09943*%
%ADD206R,0.00129X0.03886*%
%ADD207R,0.00257X0.02200*%
%ADD208R,0.00386X0.02186*%
%ADD209R,0.00129X0.10072*%
%ADD210R,0.00129X0.03900*%
%ADD211R,0.00386X0.02229*%
%ADD212R,0.00257X0.10200*%
%ADD213R,0.00129X0.03714*%
%ADD214R,0.00257X0.02157*%
%ADD215R,0.00129X0.10329*%
%ADD216R,0.04371X0.03000*%
%ADD217R,0.00129X0.04629*%
%ADD218R,0.00129X0.02029*%
%ADD219R,0.00129X0.04029*%
%ADD220R,0.00129X0.03900*%
%ADD221R,0.00129X0.02057*%
%ADD222R,0.00257X0.02229*%
%ADD223R,0.00257X0.02186*%
%ADD224R,0.00129X0.03557*%
%ADD225R,0.00129X0.02100*%
%ADD226R,0.00129X0.03357*%
%ADD227R,0.00129X0.02086*%
%ADD228R,0.00386X0.02200*%
%ADD229R,0.00129X0.03386*%
%ADD230R,0.00129X0.03729*%
%ADD231R,0.00386X0.02214*%
%ADD232R,0.00257X0.03186*%
%ADD233R,0.00129X0.02072*%
%ADD234R,0.00129X0.02014*%
%ADD235R,0.00257X0.03114*%
%ADD236R,0.00386X0.02043*%
%ADD237R,0.00129X0.04286*%
%ADD238R,0.01157X0.02914*%
%ADD239R,0.00129X0.07572*%
%ADD240R,0.00129X0.07829*%
%ADD241R,0.00129X0.08086*%
%ADD242R,0.00129X0.08343*%
%ADD243R,0.00514X0.02014*%
%ADD244R,0.00129X0.08472*%
%ADD245R,0.00514X0.02072*%
%ADD246R,0.00129X0.08600*%
%ADD247R,0.00129X0.08729*%
%ADD248R,0.00257X0.08986*%
%ADD249R,0.00129X0.02214*%
%ADD250R,0.00129X0.02200*%
%ADD251R,0.00900X0.02086*%
%ADD252R,0.00386X0.03114*%
%ADD253R,0.00129X0.09114*%
%ADD254R,0.00900X0.02100*%
%ADD255R,0.00129X0.09243*%
%ADD256R,0.00129X0.09372*%
%ADD257R,0.00257X0.03086*%
%ADD258R,0.00257X0.09500*%
%ADD259R,0.00129X0.03186*%
%ADD260R,0.00129X0.09629*%
%ADD261R,0.00129X0.03386*%
%ADD262R,0.00129X0.03957*%
%ADD263R,0.00129X0.02186*%
%ADD264R,0.02700X0.02057*%
%ADD265R,0.00129X0.03457*%
%ADD266R,0.00129X0.04400*%
%ADD267R,0.02700X0.02029*%
%ADD268R,0.00129X0.04343*%
%ADD269R,0.00129X0.03857*%
%ADD270R,0.00129X0.04414*%
%ADD271R,0.00129X0.04486*%
%ADD272R,0.00129X0.04729*%
%ADD273R,0.00129X0.04457*%
%ADD274R,0.00129X0.03114*%
%ADD275R,0.00257X0.10200*%
%ADD276R,0.00129X0.10072*%
%ADD277R,0.00257X0.02943*%
%ADD278R,0.00257X0.09943*%
%ADD279R,0.00129X0.05000*%
%ADD280R,0.00386X0.02972*%
%ADD281R,0.00129X0.05272*%
%ADD282R,0.00129X0.09686*%
%ADD283R,0.00129X0.05372*%
%ADD284R,0.00129X0.09557*%
%ADD285R,0.00129X0.05443*%
%ADD286R,0.00386X0.02872*%
%ADD287R,0.00129X0.05643*%
%ADD288R,0.00129X0.09300*%
%ADD289R,0.00129X0.05743*%
%ADD290R,0.00129X0.06043*%
%ADD291R,0.00257X0.03000*%
%ADD292R,0.00129X0.09043*%
%ADD293R,0.00129X0.06314*%
%ADD294R,0.02057X0.02800*%
%ADD295R,0.00129X0.08657*%
%ADD296R,0.00129X0.06414*%
%ADD297R,0.00129X0.08400*%
%ADD298R,0.00129X0.06514*%
%ADD299R,0.00129X0.08143*%
%ADD300R,0.01543X0.02814*%
%ADD301R,0.00129X0.02186*%
%ADD302R,0.00129X0.07757*%
%ADD303R,0.00129X0.02229*%
%ADD304R,0.00129X0.07243*%
%ADD305R,0.00129X0.03872*%
%ADD306R,0.00129X0.06214*%
%ADD307R,0.03343X0.03000*%
%ADD308R,0.00129X0.03743*%
%ADD309R,0.00643X0.02943*%
%ADD310R,0.00643X0.02872*%
%ADD311R,0.00386X0.02043*%
%ADD312R,0.00386X0.03072*%
%ADD313R,0.00129X0.03757*%
%ADD314R,0.00257X0.02843*%
%ADD315R,0.00257X0.03200*%
%ADD316R,0.00129X0.02072*%
%ADD317R,0.00129X0.02014*%
%ADD318R,0.00257X0.03329*%
%ADD319R,0.00257X0.02914*%
%ADD320R,0.00129X0.03586*%
%ADD321R,0.00257X0.02229*%
%ADD322R,0.00257X0.02186*%
%ADD323R,0.00129X0.03843*%
%ADD324R,0.00129X0.02029*%
%ADD325R,0.00129X0.03814*%
%ADD326R,0.00129X0.02057*%
%ADD327R,0.00257X0.02157*%
%ADD328R,0.00129X0.04100*%
%ADD329R,0.00129X0.03357*%
%ADD330R,0.00129X0.06729*%
%ADD331R,0.00129X0.04357*%
%ADD332R,0.00129X0.03429*%
%ADD333R,0.00129X0.06472*%
%ADD334R,0.00129X0.04743*%
%ADD335R,0.00129X0.03829*%
%ADD336R,0.00129X0.06343*%
%ADD337R,0.00257X0.09500*%
%ADD338R,0.00257X0.02214*%
%ADD339R,0.00129X0.05957*%
%ADD340R,0.00257X0.02200*%
%ADD341R,0.00129X0.05829*%
%ADD342R,0.01543X0.02557*%
%ADD343R,0.00257X0.06543*%
%ADD344R,0.00129X0.02343*%
%ADD345R,0.00129X0.05572*%
%ADD346R,0.00129X0.02300*%
%ADD347R,0.00129X0.05314*%
%ADD348R,0.00129X0.06086*%
%ADD349R,0.00129X0.05757*%
%ADD350R,0.00129X0.04929*%
%ADD351R,0.00129X0.05529*%
%ADD352R,0.00129X0.04672*%
%ADD353R,0.00129X0.04543*%
%ADD354R,0.00129X0.04843*%
%ADD355R,0.00129X0.02329*%
%ADD356R,0.00129X0.04286*%
%ADD357R,0.00129X0.04514*%
%ADD358R,0.00129X0.02314*%
%ADD359R,0.00129X0.02357*%
%ADD360R,0.00129X0.02286*%
%ADD361R,0.00257X0.02286*%
%ADD362R,0.00129X0.03772*%
%ADD363R,0.00129X0.03172*%
%ADD364R,0.00257X0.02357*%
%ADD365R,0.00129X0.03843*%
%ADD366R,0.00129X0.02486*%
%ADD367R,0.00257X0.02314*%
%ADD368R,0.00129X0.03686*%
%ADD369R,0.00129X0.01372*%
%ADD370R,0.00257X0.02329*%
%ADD371R,0.00257X0.02343*%
%ADD372R,0.00257X0.02300*%
%ADD373R,0.00129X0.02272*%
%ADD374R,0.00129X0.03857*%
%ADD375R,0.00257X0.02414*%
%ADD376R,0.00129X0.02457*%
%ADD377R,0.00129X0.05500*%
%ADD378R,0.00129X0.05272*%
%ADD379R,0.00129X0.02429*%
%ADD380R,0.00129X0.04914*%
%ADD381R,0.00129X0.04786*%
%ADD382R,0.00129X0.02600*%
%ADD383R,0.00129X0.02572*%
%ADD384R,0.00129X0.03614*%
%ADD385R,0.00129X0.02586*%
%ADD386R,0.00129X0.03129*%
%ADD387R,0.00129X0.02800*%
%ADD388R,0.00129X0.02657*%
%ADD389R,0.00129X0.02700*%
%ADD390R,0.00129X0.02729*%
%ADD391R,0.00129X0.02672*%
%ADD392R,0.00129X0.02843*%
%ADD393R,0.00129X0.03000*%
%ADD394R,0.00129X0.02986*%
%ADD395R,0.00129X0.02929*%
%ADD396R,0.00129X0.02957*%
%ADD397R,0.00129X0.03072*%
%ADD398R,0.00129X0.03043*%
%ADD399R,0.00129X0.03086*%
%ADD400R,0.00129X0.03257*%
%ADD401R,0.00129X0.03443*%
%ADD402R,0.00129X0.03643*%
%ADD403R,0.00129X0.03986*%
%ADD404R,0.00129X0.04800*%
%ADD405R,0.00129X0.05300*%
%ADD406R,0.00129X0.06186*%
%ADD407R,0.00129X0.06914*%
%ADD408R,0.00129X0.06957*%
%ADD409R,0.00129X0.15543*%
%ADD410R,0.00129X0.14529*%
%ADD411R,0.00129X0.13286*%
%ADD412R,0.00129X0.12729*%
%ADD413R,0.00129X0.11486*%
%ADD414R,0.00129X0.07886*%
%ADD415R,0.00129X0.06543*%
%ADD416R,0.00129X0.02943*%
%ADD417R,0.03343X0.01543*%
%ADD418R,0.01157X0.01372*%
%ADD419R,0.01029X0.03429*%
%ADD420R,0.00129X0.01457*%
%ADD421R,0.00129X0.01629*%
%ADD422R,0.00129X0.01000*%
%ADD423R,0.00514X0.01500*%
%ADD424R,0.00129X0.00814*%
%ADD425R,0.00129X0.01443*%
%ADD426R,0.00129X0.01386*%
%ADD427R,0.00129X0.02043*%
%ADD428R,0.00129X0.02414*%
%ADD429R,0.00257X0.01257*%
%ADD430R,0.00257X0.01272*%
%ADD431R,0.00129X0.02472*%
%ADD432R,0.00129X0.02400*%
%ADD433R,0.00257X0.02543*%
%ADD434R,0.01029X0.03172*%
%ADD435R,0.00129X0.03472*%
%ADD436R,0.00129X0.03243*%
%ADD437R,0.00129X0.01457*%
%ADD438R,0.00257X0.01500*%
%ADD439R,0.00129X0.01529*%
%ADD440R,0.00129X0.01543*%
%ADD441R,0.00129X0.01672*%
%ADD442R,0.00129X0.01443*%
%ADD443R,0.00129X0.01386*%
%ADD444R,0.00257X0.01429*%
%ADD445R,0.00257X0.01386*%
%ADD446R,0.00129X0.01414*%
%ADD447R,0.00257X0.01572*%
%ADD448R,0.00129X0.01772*%
%ADD449R,0.00129X0.00286*%
%ADD450R,0.00257X0.01414*%
%ADD451R,0.00257X0.01372*%
%ADD452R,0.00257X0.01457*%
%ADD453R,0.00129X0.01514*%
%ADD454R,0.00129X0.01643*%
%ADD455R,0.00257X0.01400*%
%ADD456R,0.00129X0.01286*%
%ADD457R,0.01157X0.01386*%
%ADD458R,0.00257X0.01514*%
%ADD459R,0.00257X0.01386*%
%ADD460R,0.00129X0.01272*%
%ADD461R,0.00257X0.01429*%
%ADD462R,0.00129X0.01314*%
%ADD463R,0.00129X0.01929*%
%ADD464R,0.00129X0.01400*%
%ADD465R,0.00643X0.03714*%
%ADD466R,0.01929X0.01386*%
%ADD467R,0.00643X0.03700*%
%ADD468R,0.00643X0.03743*%
%ADD469R,0.01800X0.01500*%
%ADD470R,0.00129X0.03229*%
%ADD471R,0.00129X0.03329*%
%ADD472R,0.00386X0.01429*%
%ADD473R,0.00129X0.01572*%
%ADD474R,0.00386X0.01443*%
%ADD475R,0.01029X0.03472*%
%ADD476R,0.00257X0.01529*%
%ADD477R,0.00129X0.01543*%
%ADD478R,0.00129X0.01586*%
%ADD479R,0.00129X0.01629*%
%ADD480R,0.00129X0.01514*%
%ADD481R,0.00129X0.03629*%
%ADD482R,0.00257X0.03372*%
%ADD483R,0.00257X0.03429*%
%ADD484R,0.00129X0.03172*%
%ADD485R,0.00129X0.01914*%
%ADD486R,0.00129X0.01657*%
%ADD487R,0.00257X0.01272*%
%ADD488R,0.00129X0.02143*%
%ADD489R,0.00129X0.01686*%
%ADD490R,0.00129X0.01429*%
%ADD491R,0.00129X0.02172*%
%ADD492R,0.00129X0.00872*%
D25*
X93458Y15560D02*
X94207Y16310D01*
X95707D01*
X96457Y15560D01*
Y12561D01*
X95707Y11811D01*
X94207D01*
X93458Y12561D01*
Y14060D01*
X94957D01*
X88959Y16310D02*
X91958D01*
Y11811D01*
X88959D01*
X91958Y14060D02*
X90459D01*
X87460Y16310D02*
Y11811D01*
Y13311D01*
X84461Y16310D01*
X86710Y14060D01*
X84461Y11811D01*
X82961D02*
Y14810D01*
X81462Y16310D01*
X79962Y14810D01*
Y11811D01*
Y14060D01*
X82961D01*
X113892Y27559D02*
X115392D01*
X116142Y28309D01*
Y29808D01*
X115392Y30558D01*
X113892D01*
X113143Y29808D01*
Y29059D01*
X116142D01*
X111643Y29808D02*
X108644D01*
X107145Y32058D02*
Y27559D01*
X104146D01*
X102646Y32058D02*
X101147D01*
X101896D01*
Y27559D01*
X102646D01*
X101147D01*
X98897D02*
Y32058D01*
X95898Y27559D01*
Y32058D01*
X91400D02*
X94399D01*
Y27559D01*
X91400D01*
X94399Y29808D02*
X92899D01*
X89900Y26809D02*
X86901D01*
X85402Y32058D02*
Y27559D01*
X83152D01*
X82403Y28309D01*
Y31308D01*
X83152Y32058D01*
X85402D01*
X78654D02*
X80153D01*
X80903Y31308D01*
Y28309D01*
X80153Y27559D01*
X78654D01*
X77904Y28309D01*
Y31308D01*
X78654Y32058D01*
X76405Y27559D02*
Y32058D01*
X73405Y27559D01*
Y32058D01*
X68907Y31308D02*
X69657Y32058D01*
X71156D01*
X71906Y31308D01*
Y28309D01*
X71156Y27559D01*
X69657D01*
X68907Y28309D01*
Y29808D01*
X70407D01*
X67407Y32058D02*
Y27559D01*
X64408D01*
X59910Y32058D02*
X62909D01*
Y27559D01*
X59910D01*
X62909Y29808D02*
X61409D01*
X106340Y23991D02*
X109339D01*
Y19492D01*
X106340D01*
X109339Y21741D02*
X107839D01*
X104840Y23991D02*
Y19492D01*
X101841D01*
X100341Y23991D02*
Y19492D01*
Y21741D01*
X97342D01*
Y23991D01*
Y19492D01*
X93594Y23991D02*
X95093D01*
X95843Y23241D01*
Y20242D01*
X95093Y19492D01*
X93594D01*
X92844Y20242D01*
Y23241D01*
X93594Y23991D01*
X88345Y23241D02*
X89095Y23991D01*
X90595D01*
X91344Y23241D01*
Y22491D01*
X90595Y21741D01*
X89095D01*
X88345Y20992D01*
Y20242D01*
X89095Y19492D01*
X90595D01*
X91344Y20242D01*
X82347Y19492D02*
X80098D01*
X79348Y20242D01*
X80098Y20992D01*
X81598D01*
X82347Y21741D01*
X81598Y22491D01*
X79348D01*
X77849Y19492D02*
Y20242D01*
X77099D01*
Y19492D01*
X77849D01*
X71101Y22491D02*
X73350D01*
X74100Y21741D01*
Y20242D01*
X73350Y19492D01*
X71101D01*
X69601D02*
Y20242D01*
X68852D01*
Y19492D01*
X69601D01*
X105269Y3937D02*
X108268D01*
X105269Y6936D01*
Y7686D01*
X106018Y8436D01*
X107518D01*
X108268Y7686D01*
X103769D02*
X103019Y8436D01*
X101520D01*
X100770Y7686D01*
Y4687D01*
X101520Y3937D01*
X103019D01*
X103769Y4687D01*
Y7686D01*
X96272Y3937D02*
X99271D01*
X96272Y6936D01*
Y7686D01*
X97021Y8436D01*
X98521D01*
X99271Y7686D01*
X94772Y3937D02*
X93273D01*
X94022D01*
Y8436D01*
X94772Y7686D01*
X91023Y3937D02*
Y4687D01*
X90273D01*
Y3937D01*
X91023D01*
X87274Y7686D02*
X86525Y8436D01*
X85025D01*
X84276Y7686D01*
Y4687D01*
X85025Y3937D01*
X86525D01*
X87274Y4687D01*
Y7686D01*
X80527Y3937D02*
Y8436D01*
X82776Y6186D01*
X79777D01*
X78277Y3937D02*
Y4687D01*
X77528D01*
Y3937D01*
X78277D01*
X71530D02*
X74529D01*
X71530Y6936D01*
Y7686D01*
X72279Y8436D01*
X73779D01*
X74529Y7686D01*
X70030Y4687D02*
X69280Y3937D01*
X67781D01*
X67031Y4687D01*
Y7686D01*
X67781Y8436D01*
X69280D01*
X70030Y7686D01*
Y6936D01*
X69280Y6186D01*
X67031D01*
D28*
X156693Y0D02*
G03*
X159449Y2756I0J2756D01*
G01*
X170472Y5512D02*
G03*
X173228Y8268I0J2756D01*
G01*
X159449Y77953D02*
G03*
X156693Y80709I-2756J0D01*
G01*
X173228Y72441D02*
G03*
X170472Y75197I-2756J0D01*
G01*
X11811Y2756D02*
G03*
X14567Y0I2756J0D01*
G01*
X0Y16535D02*
G03*
X2756Y13780I2756J0D01*
G01*
X14567Y80709D02*
G03*
X11811Y77953I0J-2756D01*
G01*
X2756Y66929D02*
G03*
X0Y64173I0J-2756D01*
G01*
X14567Y80709D02*
X156693D01*
X159449Y75197D02*
Y77953D01*
X173228Y8268D02*
Y72441D01*
X159449Y75197D02*
X170472D01*
X159449Y5512D02*
X170472D01*
X159449Y2756D02*
Y5512D01*
X14567Y0D02*
X156693D01*
X11811Y66929D02*
Y77953D01*
X2756Y66929D02*
X11811D01*
X0Y16535D02*
Y64173D01*
X2756Y13780D02*
X11811D01*
Y2756D02*
Y13780D01*
D39*
X100084Y65667D02*
X99501Y66251D01*
Y67417D01*
X100084Y68000D01*
X100667D01*
X101251Y67417D01*
Y66251D01*
X101834Y65667D01*
X102417D01*
X103000Y66251D01*
Y67417D01*
X102417Y68000D01*
X99501Y64501D02*
X103000D01*
X101834Y63335D01*
X103000Y62169D01*
X99501D01*
Y59253D02*
Y60419D01*
X100084Y61002D01*
X102417D01*
X103000Y60419D01*
Y59253D01*
X102417Y58670D01*
X100084D01*
X99501Y59253D01*
X89501Y68000D02*
X91834D01*
X93000Y66834D01*
X91834Y65667D01*
X89501D01*
X90084Y62169D02*
X89501Y62752D01*
Y63918D01*
X90084Y64501D01*
X92417D01*
X93000Y63918D01*
Y62752D01*
X92417Y62169D01*
X90084Y61002D02*
X89501Y60419D01*
Y59253D01*
X90084Y58670D01*
X90667D01*
X91251Y59253D01*
Y59836D01*
Y59253D01*
X91834Y58670D01*
X92417D01*
X93000Y59253D01*
Y60419D01*
X92417Y61002D01*
X79584Y65167D02*
X79001Y65751D01*
Y66917D01*
X79584Y67500D01*
X81917D01*
X82500Y66917D01*
Y65751D01*
X81917Y65167D01*
X79001Y64001D02*
X82500D01*
Y61669D01*
X79001Y60502D02*
X82500D01*
X81334D01*
X79001Y58170D01*
X80751Y59919D01*
X82500Y58170D01*
X69584Y65667D02*
X69001Y66251D01*
Y67417D01*
X69584Y68000D01*
X71917D01*
X72500Y67417D01*
Y66251D01*
X71917Y65667D01*
X70751D01*
Y66834D01*
X72500Y64501D02*
X69001D01*
X72500Y62169D01*
X69001D01*
Y61002D02*
X72500D01*
Y59253D01*
X71917Y58670D01*
X69584D01*
X69001Y59253D01*
Y61002D01*
X59001Y68000D02*
X62500D01*
Y66251D01*
X61917Y65667D01*
X59584D01*
X59001Y66251D01*
Y68000D01*
Y64501D02*
Y63335D01*
Y63918D01*
X62500D01*
Y64501D01*
Y63335D01*
X59001Y59836D02*
Y61002D01*
X59584Y61585D01*
X61917D01*
X62500Y61002D01*
Y59836D01*
X61917Y59253D01*
X59584D01*
X59001Y59836D01*
X26584Y53167D02*
X26001Y53751D01*
Y54917D01*
X26584Y55500D01*
X27167D01*
X27751Y54917D01*
Y53751D01*
X28334Y53167D01*
X28917D01*
X29500Y53751D01*
Y54917D01*
X28917Y55500D01*
X26001Y52001D02*
X29500D01*
Y50252D01*
X28917Y49668D01*
X26584D01*
X26001Y50252D01*
Y52001D01*
X29500Y48502D02*
X27167D01*
X26001Y47336D01*
X27167Y46170D01*
X29500D01*
X27751D01*
Y48502D01*
X16084Y53167D02*
X15501Y53751D01*
Y54917D01*
X16084Y55500D01*
X16667D01*
X17251Y54917D01*
Y53751D01*
X17834Y53167D01*
X18417D01*
X19000Y53751D01*
Y54917D01*
X18417Y55500D01*
X16084Y49668D02*
X15501Y50252D01*
Y51418D01*
X16084Y52001D01*
X18417D01*
X19000Y51418D01*
Y50252D01*
X18417Y49668D01*
X15501Y48502D02*
X19000D01*
Y46170D01*
X6084Y53167D02*
X5501Y53751D01*
Y54917D01*
X6084Y55500D01*
X8417D01*
X9000Y54917D01*
Y53751D01*
X8417Y53167D01*
X7251D01*
Y54334D01*
X9000Y52001D02*
X5501D01*
X9000Y49668D01*
X5501D01*
Y48502D02*
X9000D01*
Y46753D01*
X8417Y46170D01*
X6084D01*
X5501Y46753D01*
Y48502D01*
X36001Y55500D02*
X38334D01*
X39500Y54334D01*
X38334Y53167D01*
X36001D01*
X36584Y49668D02*
X36001Y50252D01*
Y51418D01*
X36584Y52001D01*
X38917D01*
X39500Y51418D01*
Y50252D01*
X38917Y49668D01*
X36584Y48502D02*
X36001Y47919D01*
Y46753D01*
X36584Y46170D01*
X37167D01*
X37751Y46753D01*
Y47336D01*
Y46753D01*
X38334Y46170D01*
X38917D01*
X39500Y46753D01*
Y47919D01*
X38917Y48502D01*
X19500Y34000D02*
X16001D01*
Y32251D01*
X16584Y31667D01*
X17751D01*
X18334Y32251D01*
Y34000D01*
Y32834D02*
X19500Y31667D01*
X16001Y30501D02*
X19500Y28168D01*
X16001D02*
X19500Y30501D01*
X16001Y27002D02*
X19500D01*
Y25253D01*
X18917Y24670D01*
X16584D01*
X16001Y25253D01*
Y27002D01*
X26001Y34000D02*
Y31667D01*
Y32834D01*
X29500D01*
X26001Y30501D02*
X29500Y28168D01*
X26001D02*
X29500Y30501D01*
X26001Y27002D02*
X29500D01*
Y25253D01*
X28917Y24670D01*
X26584D01*
X26001Y25253D01*
Y27002D01*
X36001Y34000D02*
X38334D01*
X39500Y32834D01*
X38334Y31667D01*
X36001D01*
X36584Y28168D02*
X36001Y28752D01*
Y29918D01*
X36584Y30501D01*
X38917D01*
X39500Y29918D01*
Y28752D01*
X38917Y28168D01*
X36584Y27002D02*
X36001Y26419D01*
Y25253D01*
X36584Y24670D01*
X37167D01*
X37751Y25253D01*
Y25836D01*
Y25253D01*
X38334Y24670D01*
X38917D01*
X39500Y25253D01*
Y26419D01*
X38917Y27002D01*
X6084Y31667D02*
X5501Y32251D01*
Y33417D01*
X6084Y34000D01*
X8417D01*
X9000Y33417D01*
Y32251D01*
X8417Y31667D01*
X7251D01*
Y32834D01*
X9000Y30501D02*
X5501D01*
X9000Y28168D01*
X5501D01*
Y27002D02*
X9000D01*
Y25253D01*
X8417Y24670D01*
X6084D01*
X5501Y25253D01*
Y27002D01*
D63*
X105995Y58784D02*
D03*
D64*
X106123Y58770D02*
D03*
X122837Y56070D02*
D03*
X139808Y58770D02*
D03*
D65*
X106251Y58784D02*
D03*
D66*
X106380Y58813D02*
D03*
D67*
X106509Y58805D02*
D03*
X139423D02*
D03*
D68*
X106638Y58812D02*
D03*
X116923Y64212D02*
D03*
D69*
X106766Y58805D02*
D03*
X139166D02*
D03*
D70*
X106894Y58813D02*
D03*
D71*
X107023Y58784D02*
D03*
X138909D02*
D03*
D72*
X107152Y58791D02*
D03*
D73*
X107280Y58813D02*
D03*
D74*
X107408Y58770D02*
D03*
X138523D02*
D03*
D75*
X107537Y58791D02*
D03*
D76*
X107666Y58812D02*
D03*
X138266D02*
D03*
D77*
X107795Y58784D02*
D03*
D78*
X107923Y58805D02*
D03*
X138009D02*
D03*
D79*
X108051Y63599D02*
D03*
D80*
X108052Y53977D02*
D03*
D81*
X108180Y64263D02*
D03*
D82*
X108180Y53348D02*
D03*
X128495Y65948D02*
D03*
D83*
X108308Y64698D02*
D03*
X137623D02*
D03*
D84*
X108308Y52884D02*
D03*
X137623D02*
D03*
D85*
X108438Y65105D02*
D03*
Y52505D02*
D03*
X129523Y50705D02*
D03*
D86*
X108566Y65462D02*
D03*
X137366D02*
D03*
D87*
X108566Y52126D02*
D03*
X129266Y66527D02*
D03*
X137366Y52126D02*
D03*
D88*
X108694Y65756D02*
D03*
X122580Y55856D02*
D03*
D89*
X108694Y51863D02*
D03*
D90*
X108823Y66049D02*
D03*
X121423Y54348D02*
D03*
X137109Y66049D02*
D03*
D91*
X108823Y51534D02*
D03*
X137109D02*
D03*
D92*
X108952Y66291D02*
D03*
X121552Y54591D02*
D03*
X136852Y50991D02*
D03*
D93*
X108951Y51270D02*
D03*
X136851Y66570D02*
D03*
D94*
X109080Y66569D02*
D03*
X136980Y51269D02*
D03*
D95*
X109080Y50991D02*
D03*
X136980Y66291D02*
D03*
D96*
X109209Y66812D02*
D03*
X136723D02*
D03*
D97*
X109209Y50776D02*
D03*
X129909Y66976D02*
D03*
X136723Y50776D02*
D03*
D98*
X109337Y67041D02*
D03*
X122066Y60741D02*
D03*
X130037Y67041D02*
D03*
D99*
X109337Y50562D02*
D03*
D100*
X109466Y67270D02*
D03*
X127851Y54670D02*
D03*
X132737Y70870D02*
D03*
X136466Y67270D02*
D03*
D101*
X109466Y50284D02*
D03*
X136466D02*
D03*
D102*
X109595Y67448D02*
D03*
X118980Y51248D02*
D03*
D103*
X109595Y50119D02*
D03*
X114995Y45619D02*
D03*
X116280Y47419D02*
D03*
D104*
X109723Y67677D02*
D03*
X109852Y49676D02*
D03*
X117823D02*
D03*
X118209Y60476D02*
D03*
X118466Y50577D02*
D03*
X119109Y51477D02*
D03*
X127338Y63177D02*
D03*
X130552Y67677D02*
D03*
X136209D02*
D03*
D105*
X109723Y49905D02*
D03*
X109852Y67905D02*
D03*
X125023Y59805D02*
D03*
X125666Y60705D02*
D03*
X131323Y68805D02*
D03*
X136209Y49905D02*
D03*
D106*
X109980Y68134D02*
D03*
D107*
X109980Y49463D02*
D03*
X121680Y48563D02*
D03*
D108*
X110109Y68312D02*
D03*
X121552Y60212D02*
D03*
X135823Y68312D02*
D03*
D109*
X110108Y49299D02*
D03*
X135823D02*
D03*
D110*
X110238Y68427D02*
D03*
X127338Y54927D02*
D03*
D111*
X110237Y49134D02*
D03*
D112*
X110366Y68605D02*
D03*
X135438Y48805D02*
D03*
X135566Y68605D02*
D03*
D113*
X110366Y48970D02*
D03*
X135437Y68770D02*
D03*
X135566Y48970D02*
D03*
X142637Y61570D02*
D03*
D114*
X110495Y68769D02*
D03*
D115*
X110494Y48806D02*
D03*
D116*
X110623Y68949D02*
D03*
X119108Y59948D02*
D03*
X122066Y48248D02*
D03*
X135309Y68949D02*
D03*
D117*
X110623Y48641D02*
D03*
X135309D02*
D03*
D118*
X110752Y69062D02*
D03*
X121938Y48362D02*
D03*
X127723D02*
D03*
X142766Y43862D02*
D03*
X144823D02*
D03*
D119*
X110752Y48526D02*
D03*
X127852D02*
D03*
X142766Y70126D02*
D03*
X144823D02*
D03*
D120*
X110880Y69291D02*
D03*
D121*
Y48313D02*
D03*
X118980Y60013D02*
D03*
X127594Y48313D02*
D03*
D122*
X111009Y69405D02*
D03*
X134923D02*
D03*
D123*
X111009Y48199D02*
D03*
X127466D02*
D03*
X134923D02*
D03*
D124*
X111137Y69520D02*
D03*
D125*
Y48034D02*
D03*
X114609Y45334D02*
D03*
X122451Y48034D02*
D03*
D126*
X111266Y69699D02*
D03*
X122323Y48098D02*
D03*
X134666Y69699D02*
D03*
X142637Y48098D02*
D03*
X144951D02*
D03*
D127*
X111266Y47870D02*
D03*
X126566D02*
D03*
X134666D02*
D03*
X142251Y61370D02*
D03*
X142508Y65870D02*
D03*
D128*
X111394Y69863D02*
D03*
X111780Y47363D02*
D03*
D129*
X111394Y47756D02*
D03*
X111780Y70256D02*
D03*
D130*
X111523Y69977D02*
D03*
X111652Y47477D02*
D03*
X134409Y69977D02*
D03*
X142638Y43876D02*
D03*
X144952D02*
D03*
D131*
X111523Y47591D02*
D03*
X111652Y70091D02*
D03*
X134409Y47591D02*
D03*
X142638Y70091D02*
D03*
X143666Y65591D02*
D03*
X144952Y70091D02*
D03*
D132*
X111908Y70434D02*
D03*
X112037Y47034D02*
D03*
X134023Y70434D02*
D03*
D133*
X111908Y47148D02*
D03*
X112037Y70548D02*
D03*
X134023Y47148D02*
D03*
D134*
X112166Y70662D02*
D03*
X133766D02*
D03*
D135*
X112166Y46920D02*
D03*
X133766D02*
D03*
D136*
X112294Y70727D02*
D03*
X112680Y46427D02*
D03*
D137*
X112295Y46819D02*
D03*
X112680Y71119D02*
D03*
D138*
X112423Y70891D02*
D03*
X112552Y46591D02*
D03*
X133509Y70891D02*
D03*
X142509Y43891D02*
D03*
D139*
X112423Y46705D02*
D03*
X112552Y71005D02*
D03*
X133509Y46705D02*
D03*
X142509Y70105D02*
D03*
D140*
X112809Y71284D02*
D03*
X132737Y46084D02*
D03*
D141*
X112809Y46312D02*
D03*
X133123D02*
D03*
X142509Y48112D02*
D03*
D142*
X112937Y71349D02*
D03*
X113066Y46148D02*
D03*
X114351Y45248D02*
D03*
X132866Y46148D02*
D03*
D143*
X112937Y46262D02*
D03*
X113066Y71462D02*
D03*
D144*
X113194Y71513D02*
D03*
X145080Y48113D02*
D03*
D145*
X113195Y46084D02*
D03*
X142380Y65884D02*
D03*
D146*
X113323Y71576D02*
D03*
X113966Y45476D02*
D03*
X131966D02*
D03*
D147*
X113323Y45984D02*
D03*
X113966Y72084D02*
D03*
X132608Y45984D02*
D03*
D148*
X113452Y71691D02*
D03*
D149*
X113451Y45870D02*
D03*
D150*
X113580Y71856D02*
D03*
Y45756D02*
D03*
D151*
X113708Y71920D02*
D03*
X131066Y44920D02*
D03*
X145209Y70120D02*
D03*
D152*
X113709Y45655D02*
D03*
X114866Y72655D02*
D03*
X131066D02*
D03*
X132223Y45655D02*
D03*
X145209Y43855D02*
D03*
D153*
X113837Y72034D02*
D03*
X131323Y45034D02*
D03*
D154*
X113838Y45541D02*
D03*
X114609Y72541D02*
D03*
X131323D02*
D03*
X143537Y65341D02*
D03*
D155*
X114095Y72148D02*
D03*
D156*
X114094Y45427D02*
D03*
X142380Y48127D02*
D03*
D157*
X114223Y72312D02*
D03*
Y45312D02*
D03*
X131709D02*
D03*
D158*
X114416Y72427D02*
D03*
X131516D02*
D03*
D159*
X114480Y45348D02*
D03*
X133895Y70548D02*
D03*
D160*
X114737Y72605D02*
D03*
X116409Y73505D02*
D03*
X117052Y43805D02*
D03*
X129523Y73505D02*
D03*
D161*
X114737Y45484D02*
D03*
D162*
X114866Y45470D02*
D03*
D163*
X114995Y72719D02*
D03*
D164*
X115187Y72884D02*
D03*
D165*
X115123Y45605D02*
D03*
X132609Y70805D02*
D03*
D166*
X115252Y45655D02*
D03*
D167*
X115445Y72998D02*
D03*
D168*
X115380Y45741D02*
D03*
D169*
X115509Y65755D02*
D03*
D170*
X117437Y55248D02*
D03*
D171*
X115509Y45791D02*
D03*
X122452Y55691D02*
D03*
D172*
X115702Y73112D02*
D03*
D173*
X115638Y65241D02*
D03*
D174*
Y45877D02*
D03*
D175*
X115766Y65048D02*
D03*
D176*
X115766Y45926D02*
D03*
D177*
X115894Y73277D02*
D03*
D178*
Y64856D02*
D03*
D179*
Y46013D02*
D03*
D180*
X116023Y73341D02*
D03*
X121552Y42741D02*
D03*
X129909Y73341D02*
D03*
X145337Y48141D02*
D03*
D181*
X116023Y64727D02*
D03*
D182*
Y46062D02*
D03*
D183*
X116152Y73391D02*
D03*
D184*
Y64662D02*
D03*
X123866D02*
D03*
D185*
X116151Y46049D02*
D03*
X123737Y56849D02*
D03*
D186*
X116280Y73456D02*
D03*
D187*
X116280Y64534D02*
D03*
D188*
Y44148D02*
D03*
D189*
X116409Y64470D02*
D03*
X123609D02*
D03*
D190*
X116409Y47598D02*
D03*
X117051Y48498D02*
D03*
X118337Y50299D02*
D03*
X124637Y59298D02*
D03*
X125923Y61098D02*
D03*
X126566Y61998D02*
D03*
X127208Y62898D02*
D03*
D191*
X116409Y44084D02*
D03*
X117051Y73784D02*
D03*
X129523Y44084D02*
D03*
D192*
X116601Y73570D02*
D03*
X119173Y74470D02*
D03*
X129073Y43870D02*
D03*
D193*
X116537Y64405D02*
D03*
D194*
Y47812D02*
D03*
X124766Y59512D02*
D03*
X125409Y60412D02*
D03*
X126052Y61312D02*
D03*
D195*
X116601Y43984D02*
D03*
X119173Y43084D02*
D03*
X129073Y73684D02*
D03*
D196*
X116666Y64341D02*
D03*
X123352D02*
D03*
D197*
X116666Y47991D02*
D03*
X117309Y48891D02*
D03*
X117952Y49791D02*
D03*
X119237Y51591D02*
D03*
X124252Y58791D02*
D03*
X125538Y60591D02*
D03*
X126823Y62391D02*
D03*
X127466Y63291D02*
D03*
X130037Y50691D02*
D03*
D198*
X116859Y73684D02*
D03*
X119816Y74584D02*
D03*
X126116D02*
D03*
X126759Y43084D02*
D03*
X129330Y43984D02*
D03*
D199*
X116794Y64277D02*
D03*
D200*
Y48106D02*
D03*
X124380Y58906D02*
D03*
X130680Y67906D02*
D03*
X136080D02*
D03*
D201*
X116859Y43869D02*
D03*
X119816Y42969D02*
D03*
X126116D02*
D03*
X126759Y74469D02*
D03*
X129330Y73569D02*
D03*
D202*
X116923Y48384D02*
D03*
X117566Y49284D02*
D03*
X118209Y50184D02*
D03*
X118851Y51084D02*
D03*
X126437Y61884D02*
D03*
X127723Y63684D02*
D03*
D203*
X117051Y64148D02*
D03*
X122966D02*
D03*
D204*
X117245Y73848D02*
D03*
D205*
Y64084D02*
D03*
D206*
X117180Y48713D02*
D03*
D207*
X117244Y43756D02*
D03*
D208*
X117566Y73963D02*
D03*
X128366D02*
D03*
D209*
X117437Y64020D02*
D03*
D210*
X117438Y49105D02*
D03*
X118723Y50905D02*
D03*
X126309Y61705D02*
D03*
X126952Y62605D02*
D03*
D211*
X117566Y43641D02*
D03*
X128366D02*
D03*
D212*
X117630Y63956D02*
D03*
D213*
X117695Y49398D02*
D03*
X125280Y60198D02*
D03*
X127595Y54798D02*
D03*
D214*
X117887Y74076D02*
D03*
Y43477D02*
D03*
D215*
X117823Y63891D02*
D03*
D216*
X120073Y67555D02*
D03*
D217*
X117952Y61041D02*
D03*
X122323Y55641D02*
D03*
D218*
X118080Y74141D02*
D03*
D219*
Y60741D02*
D03*
X136594Y67041D02*
D03*
D220*
X118080Y50006D02*
D03*
X127594Y63506D02*
D03*
D221*
X118080Y43427D02*
D03*
D222*
X118273Y74241D02*
D03*
D223*
Y43362D02*
D03*
D224*
X118338Y60377D02*
D03*
X121552Y48676D02*
D03*
X121809Y60377D02*
D03*
D225*
X118466Y74305D02*
D03*
X127466D02*
D03*
D226*
X118466Y60277D02*
D03*
D227*
Y43312D02*
D03*
X127466D02*
D03*
D228*
X118723Y74356D02*
D03*
X127209D02*
D03*
D229*
X118594Y60163D02*
D03*
X132994Y70963D02*
D03*
D230*
X118594Y50691D02*
D03*
X124894Y59691D02*
D03*
X126180Y61491D02*
D03*
D231*
X118723Y43248D02*
D03*
X127209D02*
D03*
D232*
X118788Y60062D02*
D03*
D233*
X118980Y74419D02*
D03*
D234*
Y43148D02*
D03*
D235*
X119301Y59899D02*
D03*
D236*
X119495Y74534D02*
D03*
Y43034D02*
D03*
D237*
X119366Y51612D02*
D03*
X129909Y50712D02*
D03*
D238*
X120009Y59798D02*
D03*
D239*
X119495Y52869D02*
D03*
D240*
X119623Y52741D02*
D03*
D241*
X119752Y52612D02*
D03*
D242*
X119880Y52484D02*
D03*
D243*
X120202Y74648D02*
D03*
X125730D02*
D03*
D244*
X120009Y52420D02*
D03*
D245*
X120202Y42919D02*
D03*
X125730D02*
D03*
D246*
X120138Y52355D02*
D03*
D247*
X120266Y52291D02*
D03*
D248*
X120459Y52163D02*
D03*
D249*
X120523Y74748D02*
D03*
X125408D02*
D03*
X129651Y44148D02*
D03*
D250*
X120523Y42855D02*
D03*
X125409D02*
D03*
X129652Y73455D02*
D03*
D251*
X121037Y74812D02*
D03*
X124895D02*
D03*
D252*
X120780Y59898D02*
D03*
D253*
X120651Y52099D02*
D03*
D254*
X121037Y42805D02*
D03*
X124895D02*
D03*
D255*
X120780Y52034D02*
D03*
D256*
X120908Y51970D02*
D03*
X128623D02*
D03*
D257*
X121102Y60012D02*
D03*
D258*
Y51905D02*
D03*
D259*
X121294Y60063D02*
D03*
X135180Y69063D02*
D03*
D260*
X121294Y51841D02*
D03*
D261*
X121423Y60162D02*
D03*
X121809Y48462D02*
D03*
D262*
X121423Y48877D02*
D03*
D263*
X121552Y74862D02*
D03*
X129909Y44262D02*
D03*
D264*
X122966Y74927D02*
D03*
D265*
X121680Y60327D02*
D03*
X135694Y68427D02*
D03*
D266*
X121680Y54756D02*
D03*
D267*
X122966Y42641D02*
D03*
D268*
X121809Y54984D02*
D03*
D269*
X121938Y60527D02*
D03*
D270*
X121937Y55149D02*
D03*
D271*
X122066Y55312D02*
D03*
D272*
X122194Y61091D02*
D03*
D273*
Y55427D02*
D03*
X132480Y70727D02*
D03*
D274*
X122195Y48198D02*
D03*
D275*
X122388Y63955D02*
D03*
D276*
X122580Y64019D02*
D03*
D277*
X122645Y47984D02*
D03*
X127016D02*
D03*
D278*
X122773Y64084D02*
D03*
D279*
X122709Y55955D02*
D03*
D280*
X122966Y47869D02*
D03*
D281*
X122966Y56220D02*
D03*
D282*
X123094Y64213D02*
D03*
X139294Y58813D02*
D03*
D283*
X123095Y56269D02*
D03*
D284*
X123223Y64276D02*
D03*
D285*
X123223Y56434D02*
D03*
X129008Y66334D02*
D03*
D286*
X123352Y47819D02*
D03*
D287*
X123351Y56534D02*
D03*
D288*
X123480Y64406D02*
D03*
D289*
X123480Y56584D02*
D03*
D290*
X123609Y56734D02*
D03*
D291*
X123673Y47755D02*
D03*
D292*
X123737Y64534D02*
D03*
D293*
X123866Y56998D02*
D03*
X129008Y50699D02*
D03*
D294*
X124830Y47656D02*
D03*
D295*
X123994Y64727D02*
D03*
D296*
X123995Y57048D02*
D03*
D297*
X124123Y64855D02*
D03*
D298*
X124123Y57099D02*
D03*
D299*
X124251Y64984D02*
D03*
D300*
X124959Y55248D02*
D03*
D301*
X124380Y74863D02*
D03*
D302*
Y65177D02*
D03*
D303*
Y42741D02*
D03*
D304*
X124509Y65434D02*
D03*
D305*
Y59120D02*
D03*
X125151Y60020D02*
D03*
X136337Y50120D02*
D03*
D306*
X124637Y65948D02*
D03*
X137751Y53348D02*
D03*
D307*
X126373Y67555D02*
D03*
D308*
X125795Y60984D02*
D03*
X127080Y62784D02*
D03*
D309*
X126051Y55184D02*
D03*
D310*
X126180Y47819D02*
D03*
D311*
X126437Y74534D02*
D03*
Y43034D02*
D03*
D312*
X126566Y55119D02*
D03*
D313*
X126694Y62277D02*
D03*
X127980Y64077D02*
D03*
X136080Y49677D02*
D03*
D314*
X126759Y47934D02*
D03*
D315*
X126888Y55055D02*
D03*
X142702Y65855D02*
D03*
D316*
X126951Y74420D02*
D03*
X142251Y43820D02*
D03*
D317*
X126951Y43148D02*
D03*
D318*
X127144Y54991D02*
D03*
D319*
X127273Y48098D02*
D03*
D320*
X127466Y54862D02*
D03*
X135952Y49462D02*
D03*
D321*
X127659Y74241D02*
D03*
D322*
Y43363D02*
D03*
D323*
X127723Y54734D02*
D03*
X130937Y68234D02*
D03*
D324*
X127852Y74141D02*
D03*
X142252Y48041D02*
D03*
D325*
X127851Y63849D02*
D03*
X136337Y67449D02*
D03*
D326*
X127852Y43426D02*
D03*
D327*
X128044Y74077D02*
D03*
Y43477D02*
D03*
D328*
X127980Y54606D02*
D03*
D329*
Y48577D02*
D03*
D330*
X128109Y65691D02*
D03*
D331*
Y54476D02*
D03*
D332*
Y48741D02*
D03*
D333*
X128237Y65820D02*
D03*
D334*
Y54284D02*
D03*
D335*
X128237Y48941D02*
D03*
D336*
X128366Y65884D02*
D03*
D337*
X128430Y51906D02*
D03*
D338*
X128687Y73848D02*
D03*
D339*
X128623Y66076D02*
D03*
D340*
X128688Y43755D02*
D03*
D341*
X128752Y66141D02*
D03*
D342*
X129459Y55377D02*
D03*
D343*
X128816Y50684D02*
D03*
D344*
X128880Y73784D02*
D03*
X131195Y44984D02*
D03*
D345*
X128880Y66269D02*
D03*
D346*
X128880Y43806D02*
D03*
X131194Y72606D02*
D03*
D347*
X129137Y66399D02*
D03*
D348*
X129138Y50712D02*
D03*
X131709Y70512D02*
D03*
D349*
X129266Y50677D02*
D03*
X131837Y70477D02*
D03*
D350*
X129394Y66591D02*
D03*
D351*
Y50691D02*
D03*
D352*
X129523Y66720D02*
D03*
D353*
X129651Y66784D02*
D03*
D354*
Y50734D02*
D03*
D355*
X129780Y73391D02*
D03*
D356*
Y66913D02*
D03*
D357*
X129780Y50698D02*
D03*
D358*
Y44198D02*
D03*
D359*
X130037Y73277D02*
D03*
D360*
Y44312D02*
D03*
D361*
X130230Y73113D02*
D03*
D362*
X130166Y67170D02*
D03*
X130808Y68070D02*
D03*
X131451Y68970D02*
D03*
D363*
X130166Y50670D02*
D03*
X142508Y61470D02*
D03*
D364*
X130230Y44477D02*
D03*
D365*
X130295Y67334D02*
D03*
X131580Y69134D02*
D03*
D366*
X130294Y50713D02*
D03*
D367*
X130487Y72998D02*
D03*
D368*
X130423Y67512D02*
D03*
X131066Y68412D02*
D03*
D369*
X130423Y50670D02*
D03*
X143151Y66870D02*
D03*
X144566Y47070D02*
D03*
D370*
X130488Y44591D02*
D03*
D371*
X130745Y72884D02*
D03*
D372*
X130744Y44706D02*
D03*
D373*
X130937Y72720D02*
D03*
Y44820D02*
D03*
D374*
X131194Y68627D02*
D03*
D375*
X131516Y45148D02*
D03*
X142830Y51448D02*
D03*
D376*
X131837Y45426D02*
D03*
X145209Y48127D02*
D03*
D377*
X131966Y70605D02*
D03*
D378*
X132095Y70619D02*
D03*
D379*
X132094Y45541D02*
D03*
D380*
X132223Y70698D02*
D03*
D381*
X132352Y70762D02*
D03*
X137238Y51862D02*
D03*
D382*
X132352Y45755D02*
D03*
D383*
X132480Y45869D02*
D03*
D384*
X132866Y70948D02*
D03*
D385*
X132994Y46263D02*
D03*
D386*
X133123Y71091D02*
D03*
X135052Y69291D02*
D03*
D387*
X133252Y71055D02*
D03*
D388*
Y46426D02*
D03*
X133637Y70727D02*
D03*
D389*
X133380Y71006D02*
D03*
X145080Y70106D02*
D03*
D390*
X133380Y46591D02*
D03*
X145080Y43891D02*
D03*
D391*
X133637Y46820D02*
D03*
D392*
X133895Y47034D02*
D03*
D393*
X134152Y70255D02*
D03*
X134537Y47755D02*
D03*
D394*
X134152Y47362D02*
D03*
X134537Y69862D02*
D03*
D395*
X134280Y70091D02*
D03*
D396*
Y47477D02*
D03*
D397*
X134795Y69519D02*
D03*
X142380Y61419D02*
D03*
D398*
X134795Y48034D02*
D03*
D399*
X135052Y48312D02*
D03*
D400*
X135180Y48527D02*
D03*
D401*
X135695Y49134D02*
D03*
D402*
X135951Y68134D02*
D03*
D403*
X136594Y50563D02*
D03*
D404*
X137238Y65755D02*
D03*
D405*
X137494Y65106D02*
D03*
Y52506D02*
D03*
D406*
X137752Y64262D02*
D03*
D407*
X137880Y63598D02*
D03*
D408*
X137880Y53977D02*
D03*
D409*
X138137Y58784D02*
D03*
D410*
X138394Y58791D02*
D03*
D411*
X138652Y58812D02*
D03*
D412*
X138780Y58791D02*
D03*
D413*
X139038Y58812D02*
D03*
D414*
X139552D02*
D03*
D415*
X139680Y58784D02*
D03*
D416*
X139937Y58784D02*
D03*
D417*
X142701Y75184D02*
D03*
D418*
X141609Y60569D02*
D03*
X143795D02*
D03*
D419*
X141544Y55041D02*
D03*
D420*
X142123Y70126D02*
D03*
X145466D02*
D03*
D421*
X142123Y65841D02*
D03*
X144052Y66741D02*
D03*
D422*
X142123Y62055D02*
D03*
X145466Y66555D02*
D03*
D423*
X142316Y56006D02*
D03*
D424*
X142123Y50648D02*
D03*
D425*
Y48134D02*
D03*
X143409Y42734D02*
D03*
X145466Y48134D02*
D03*
D426*
X142123Y43862D02*
D03*
X144566Y69062D02*
D03*
X145466Y43862D02*
D03*
D427*
X142251Y70034D02*
D03*
D428*
Y65848D02*
D03*
D429*
X142316Y52027D02*
D03*
D430*
X142316Y50619D02*
D03*
D431*
X142380Y70119D02*
D03*
D432*
X142380Y43856D02*
D03*
D433*
X142573Y51384D02*
D03*
D434*
X143087Y55170D02*
D03*
D435*
X142766Y61620D02*
D03*
D436*
Y48134D02*
D03*
X144823D02*
D03*
D437*
X142894Y71027D02*
D03*
Y69227D02*
D03*
X144694Y71027D02*
D03*
D438*
X142959Y66806D02*
D03*
D439*
X142894Y64891D02*
D03*
X143280D02*
D03*
D440*
X142895Y62584D02*
D03*
X144695D02*
D03*
D441*
X142895Y60719D02*
D03*
X144695D02*
D03*
D442*
X142895Y49034D02*
D03*
Y47234D02*
D03*
X144695Y49034D02*
D03*
D443*
X142894Y44763D02*
D03*
Y42963D02*
D03*
X144694Y44763D02*
D03*
D444*
X143087Y71141D02*
D03*
Y64841D02*
D03*
X144502Y71141D02*
D03*
D445*
X143087Y69062D02*
D03*
D446*
X143023Y62648D02*
D03*
X143409Y68949D02*
D03*
D447*
X143087Y60670D02*
D03*
X144501D02*
D03*
D448*
X143023Y51770D02*
D03*
D449*
X143023Y50512D02*
D03*
D450*
X143087Y49148D02*
D03*
Y42849D02*
D03*
X144501Y62648D02*
D03*
Y49148D02*
D03*
D451*
X143087Y47070D02*
D03*
D452*
X143087Y44927D02*
D03*
X144502D02*
D03*
X145273Y64727D02*
D03*
D453*
X143151Y62699D02*
D03*
D454*
Y51834D02*
D03*
D455*
X143344Y71256D02*
D03*
X144244D02*
D03*
D456*
X143280Y69013D02*
D03*
D457*
X143794Y62763D02*
D03*
D458*
X143345Y51898D02*
D03*
D459*
X143344Y49263D02*
D03*
X144244D02*
D03*
D460*
X143280Y47019D02*
D03*
D461*
X143344Y45041D02*
D03*
X144244D02*
D03*
D462*
X143280Y42798D02*
D03*
D463*
X143409Y65091D02*
D03*
D464*
Y46955D02*
D03*
D465*
X143795Y70098D02*
D03*
D466*
X144438Y51962D02*
D03*
D467*
X143794Y48106D02*
D03*
D468*
X143795Y43884D02*
D03*
D469*
X144502Y56005D02*
D03*
D470*
X143794Y65741D02*
D03*
D471*
X143923Y65791D02*
D03*
D472*
X144180Y64841D02*
D03*
D473*
X144180Y66969D02*
D03*
X144695D02*
D03*
Y47169D02*
D03*
D474*
X144437Y67034D02*
D03*
D475*
X144887Y74220D02*
D03*
D476*
X144502Y64891D02*
D03*
D477*
X144566Y42784D02*
D03*
D478*
X144694Y69163D02*
D03*
D479*
Y64941D02*
D03*
D480*
X144695Y42898D02*
D03*
D481*
X144823Y65941D02*
D03*
D482*
X144887Y61570D02*
D03*
D483*
X145016Y65841D02*
D03*
D484*
X145080Y61469D02*
D03*
D485*
X145209Y66499D02*
D03*
D486*
X145209Y62126D02*
D03*
D487*
X145273Y60520D02*
D03*
D488*
X145337Y70084D02*
D03*
D489*
X145337Y66512D02*
D03*
D490*
Y62141D02*
D03*
D491*
X145337Y43870D02*
D03*
D492*
X145466Y62120D02*
D03*
M02*
