%FSLAX25Y25*%
%MOIN*%
G70*
G01*
G75*
G04 Layer_Color=8421504*
%ADD10R,0.03937X0.03937*%
%ADD11C,0.03937*%
%ADD12R,0.03150X0.03150*%
%ADD13R,0.03150X0.03150*%
%ADD14R,0.00984X0.06299*%
%ADD15R,0.06299X0.00984*%
%ADD16O,0.06299X0.00984*%
%ADD17O,0.03937X0.03937*%
%ADD18R,0.07087X0.04724*%
%ADD19O,0.04000X0.01200*%
%ADD20R,0.04000X0.01200*%
%ADD21R,0.03600X0.03600*%
%ADD22R,0.03600X0.05000*%
%ADD23R,0.09449X0.03937*%
%ADD24R,0.09449X0.12992*%
%ADD25C,0.01000*%
%ADD26C,0.02000*%
%ADD27C,0.04000*%
%ADD28C,0.00787*%
%ADD29C,0.06299*%
%ADD30C,0.03937*%
%ADD31O,0.15748X0.06299*%
%ADD32C,0.06000*%
%ADD33R,0.06000X0.06000*%
%ADD34C,0.11811*%
%ADD35C,0.05512*%
%ADD36C,0.02500*%
%ADD37C,0.04000*%
%ADD38C,0.00984*%
%ADD39C,0.00800*%
%ADD40C,0.01200*%
%ADD41R,0.00000X0.00000*%
D12*
X51000Y24500D02*
D03*
X57299D02*
D03*
X109000Y4500D02*
D03*
X102701D02*
D03*
X122701Y46000D02*
D03*
X129000D02*
D03*
X147047Y74311D02*
D03*
X153347D02*
D03*
X135799Y8500D02*
D03*
X129500D02*
D03*
X29799Y51000D02*
D03*
X23500D02*
D03*
X15000D02*
D03*
X8701D02*
D03*
X39000Y11500D02*
D03*
X32701D02*
D03*
X39000Y5000D02*
D03*
X32701D02*
D03*
X137000Y46000D02*
D03*
X143299D02*
D03*
X50201Y58000D02*
D03*
X56500D02*
D03*
X56299Y51500D02*
D03*
X50000D02*
D03*
X76299Y53000D02*
D03*
X70000D02*
D03*
X51000Y17000D02*
D03*
X57299D02*
D03*
X71500Y13500D02*
D03*
X65201D02*
D03*
X44500Y71500D02*
D03*
X50799D02*
D03*
X28201Y33000D02*
D03*
X34500D02*
D03*
X28201Y40000D02*
D03*
X34500D02*
D03*
X70201Y60098D02*
D03*
X76500D02*
D03*
X57299Y10500D02*
D03*
X51000D02*
D03*
X71299Y7000D02*
D03*
X65000D02*
D03*
D13*
X145000Y58000D02*
D03*
Y64299D02*
D03*
D14*
X84626Y49433D02*
D03*
X86594D02*
D03*
X88563D02*
D03*
X90531D02*
D03*
X92500D02*
D03*
X94468D02*
D03*
X96437D02*
D03*
X98405D02*
D03*
X100374D02*
D03*
X102342D02*
D03*
X104311D02*
D03*
X106280D02*
D03*
Y14000D02*
D03*
X104311D02*
D03*
X102342D02*
D03*
X100374D02*
D03*
X98405D02*
D03*
X96437D02*
D03*
X94468D02*
D03*
X92500D02*
D03*
X90531D02*
D03*
X88563D02*
D03*
X86594D02*
D03*
X84626D02*
D03*
D15*
X113169Y42543D02*
D03*
Y40575D02*
D03*
Y38606D02*
D03*
Y36638D02*
D03*
Y34669D02*
D03*
Y32701D02*
D03*
Y30732D02*
D03*
Y28764D02*
D03*
Y26795D02*
D03*
Y24827D02*
D03*
Y22858D02*
D03*
Y20890D02*
D03*
X77736D02*
D03*
Y22858D02*
D03*
Y24827D02*
D03*
Y26795D02*
D03*
Y28764D02*
D03*
Y30732D02*
D03*
Y32701D02*
D03*
Y34669D02*
D03*
Y36638D02*
D03*
Y38606D02*
D03*
Y40575D02*
D03*
D16*
Y42543D02*
D03*
D18*
X60000Y33051D02*
D03*
X43979D02*
D03*
Y42500D02*
D03*
X60000D02*
D03*
D19*
X129000Y35000D02*
D03*
Y32500D02*
D03*
Y30000D02*
D03*
X138500Y35000D02*
D03*
Y32500D02*
D03*
D20*
Y30000D02*
D03*
D21*
X128700Y15000D02*
D03*
X136200D02*
D03*
D22*
X132500Y23000D02*
D03*
D23*
X135335Y56445D02*
D03*
Y65500D02*
D03*
Y74555D02*
D03*
D24*
X112500Y65500D02*
D03*
D28*
X156693Y0D02*
G03*
X159449Y2756I0J2756D01*
G01*
X170472Y5512D02*
G03*
X173228Y8268I0J2756D01*
G01*
X159449Y77953D02*
G03*
X156693Y80709I-2756J0D01*
G01*
X173228Y72441D02*
G03*
X170472Y75197I-2756J0D01*
G01*
X11811Y2756D02*
G03*
X14567Y0I2756J0D01*
G01*
X0Y16535D02*
G03*
X2756Y13780I2756J0D01*
G01*
X14567Y80709D02*
G03*
X11811Y77953I0J-2756D01*
G01*
X2756Y66929D02*
G03*
X0Y64173I0J-2756D01*
G01*
X14567Y80709D02*
X156693D01*
X159449Y75197D02*
Y77953D01*
X173228Y8268D02*
Y72441D01*
X159449Y75197D02*
X170472D01*
X159449Y5512D02*
X170472D01*
X159449Y2756D02*
Y5512D01*
X14567Y0D02*
X156693D01*
X11811Y66929D02*
Y77953D01*
X2756Y66929D02*
X11811D01*
X0Y16535D02*
Y64173D01*
X2756Y13780D02*
X11811D01*
Y2756D02*
Y13780D01*
D41*
X165354Y9843D02*
D03*
M02*
