%FSLAX25Y25*%
%MOIN*%
G70*
G01*
G75*
G04 Layer_Physical_Order=2*
G04 Layer_Color=16711680*
%ADD10R,0.03937X0.03937*%
%ADD11C,0.03937*%
%ADD12R,0.03150X0.03150*%
%ADD13R,0.03150X0.03150*%
%ADD14R,0.00984X0.06299*%
%ADD15R,0.06299X0.00984*%
%ADD16O,0.06299X0.00984*%
%ADD17O,0.03937X0.03937*%
%ADD18R,0.07087X0.04724*%
%ADD19O,0.04000X0.01200*%
%ADD20R,0.04000X0.01200*%
%ADD21R,0.03600X0.03600*%
%ADD22R,0.03600X0.05000*%
%ADD23R,0.09449X0.03937*%
%ADD24R,0.09449X0.12992*%
%ADD25C,0.01000*%
%ADD26C,0.02000*%
%ADD27C,0.04000*%
%ADD28C,0.00787*%
%ADD29C,0.06299*%
%ADD30C,0.03937*%
%ADD31O,0.15748X0.06299*%
%ADD32C,0.06000*%
%ADD33R,0.06000X0.06000*%
%ADD34C,0.11811*%
%ADD35C,0.05512*%
%ADD36C,0.02500*%
%ADD37C,0.04000*%
G36*
X157283Y79377D02*
X157783Y79043D01*
X158117Y78543D01*
X158233Y77960D01*
X158232Y77953D01*
Y75197D01*
X158324Y74731D01*
X158588Y74336D01*
X158983Y74072D01*
X159449Y73980D01*
X170472D01*
X170480Y73981D01*
X171063Y73865D01*
X171563Y73531D01*
X171897Y73031D01*
X172013Y72448D01*
X172011Y72441D01*
Y8268D01*
X172013Y8260D01*
X171897Y7678D01*
X171563Y7177D01*
X171063Y6843D01*
X170480Y6727D01*
X170472Y6729D01*
X159449D01*
X158983Y6636D01*
X158588Y6372D01*
X158324Y5978D01*
X158232Y5512D01*
Y2756D01*
X158233Y2748D01*
X158117Y2166D01*
X157783Y1666D01*
X157283Y1331D01*
X156701Y1216D01*
X156693Y1217D01*
X14567D01*
X14559Y1216D01*
X13977Y1331D01*
X13477Y1666D01*
X13142Y2166D01*
X13027Y2748D01*
X13028Y2756D01*
Y13780D01*
X12935Y14245D01*
X12672Y14640D01*
X12277Y14904D01*
X11811Y14997D01*
X2756D01*
X2748Y14995D01*
X2166Y15111D01*
X1666Y15445D01*
X1331Y15945D01*
X1216Y16528D01*
X1217Y16535D01*
Y64173D01*
X1216Y64181D01*
X1331Y64763D01*
X1666Y65263D01*
X2166Y65598D01*
X2748Y65714D01*
X2756Y65712D01*
X11811D01*
X12277Y65805D01*
X12672Y66069D01*
X12935Y66463D01*
X13028Y66929D01*
Y69051D01*
X13513Y69173D01*
X14083Y68107D01*
X14921Y67086D01*
X15942Y66248D01*
X17107Y65625D01*
X18371Y65242D01*
X19685Y65112D01*
X21000Y65242D01*
X22264Y65625D01*
X23428Y66248D01*
X24450Y67086D01*
X25288Y68107D01*
X25910Y69272D01*
X26294Y70536D01*
X26423Y71850D01*
X26294Y73165D01*
X25910Y74429D01*
X25288Y75594D01*
X24450Y76615D01*
X23428Y77453D01*
X22264Y78075D01*
X21000Y78459D01*
X19685Y78588D01*
X18371Y78459D01*
X17107Y78075D01*
X15942Y77453D01*
X14921Y76615D01*
X14083Y75594D01*
X13513Y74528D01*
X13028Y74650D01*
Y77953D01*
X13027Y77960D01*
X13142Y78543D01*
X13477Y79043D01*
X13977Y79377D01*
X14559Y79493D01*
X14567Y79492D01*
X40243D01*
X40434Y79030D01*
X36202Y74798D01*
X35804Y74202D01*
X35781Y74086D01*
X35665Y73500D01*
Y63353D01*
X35584Y63319D01*
X34790Y62710D01*
X34181Y61916D01*
X33798Y60992D01*
X33667Y60000D01*
X33798Y59008D01*
X34181Y58084D01*
X34790Y57290D01*
X35584Y56681D01*
X36508Y56298D01*
X37500Y56167D01*
X38492Y56298D01*
X39416Y56681D01*
X40210Y57290D01*
X40819Y58084D01*
X41202Y59008D01*
X41333Y60000D01*
X41202Y60992D01*
X40819Y61916D01*
X40210Y62710D01*
X39416Y63319D01*
X39335Y63353D01*
Y72740D01*
X43260Y76665D01*
X57200D01*
Y76300D01*
X57200D01*
Y68700D01*
X64800D01*
Y76300D01*
X64800D01*
Y76311D01*
X65154Y76665D01*
X69843D01*
X69941Y76174D01*
X69084Y75819D01*
X68290Y75210D01*
X67681Y74416D01*
X67298Y73492D01*
X67233Y73000D01*
X74767D01*
X74702Y73492D01*
X74319Y74416D01*
X73710Y75210D01*
X72916Y75819D01*
X72059Y76174D01*
X72157Y76665D01*
X79843D01*
X79941Y76174D01*
X79084Y75819D01*
X78290Y75210D01*
X77681Y74416D01*
X77298Y73492D01*
X77167Y72500D01*
X77298Y71508D01*
X77681Y70584D01*
X78290Y69790D01*
X79084Y69181D01*
X80008Y68798D01*
X81000Y68667D01*
X81992Y68798D01*
X82916Y69181D01*
X83710Y69790D01*
X84319Y70584D01*
X84702Y71508D01*
X84833Y72500D01*
X84702Y73492D01*
X84319Y74416D01*
X83710Y75210D01*
X82916Y75819D01*
X82059Y76174D01*
X82157Y76665D01*
X84240D01*
X87331Y73573D01*
X87298Y73492D01*
X87167Y72500D01*
X87298Y71508D01*
X87681Y70584D01*
X88290Y69790D01*
X89084Y69181D01*
X90008Y68798D01*
X91000Y68667D01*
X91992Y68798D01*
X92916Y69181D01*
X93710Y69790D01*
X94319Y70584D01*
X94702Y71508D01*
X94833Y72500D01*
X94702Y73492D01*
X94319Y74416D01*
X93710Y75210D01*
X92916Y75819D01*
X91992Y76202D01*
X91000Y76333D01*
X90008Y76202D01*
X89927Y76169D01*
X87066Y79030D01*
X87257Y79492D01*
X156693D01*
X156701Y79493D01*
X157283Y79377D01*
D02*
G37*
%LPC*%
G36*
X158249Y28043D02*
X154831D01*
Y24625D01*
X155362Y24695D01*
X156323Y25093D01*
X157148Y25726D01*
X157781Y26551D01*
X158179Y27512D01*
X158249Y28043D01*
D02*
G37*
G36*
X153831D02*
X150413D01*
X150483Y27512D01*
X150881Y26551D01*
X151514Y25726D01*
X152339Y25093D01*
X153300Y24695D01*
X153831Y24625D01*
Y28043D01*
D02*
G37*
G36*
X86500Y28500D02*
X84242D01*
X84272Y28269D01*
X84554Y27588D01*
X85003Y27003D01*
X85588Y26554D01*
X86269Y26272D01*
X86500Y26242D01*
Y28500D01*
D02*
G37*
G36*
X89758D02*
X87500D01*
Y26242D01*
X87731Y26272D01*
X88412Y26554D01*
X88997Y27003D01*
X89446Y27588D01*
X89728Y28269D01*
X89758Y28500D01*
D02*
G37*
G36*
X11300Y23800D02*
X8000D01*
Y20500D01*
X11300D01*
Y23800D01*
D02*
G37*
G36*
X7000D02*
X3700D01*
Y20500D01*
X7000D01*
Y23800D01*
D02*
G37*
G36*
X102000Y25258D02*
Y23000D01*
X104258D01*
X104228Y23231D01*
X103946Y23912D01*
X103497Y24497D01*
X102912Y24946D01*
X102231Y25228D01*
X102000Y25258D01*
D02*
G37*
G36*
X101000D02*
X100769Y25228D01*
X100088Y24946D01*
X99503Y24497D01*
X99054Y23912D01*
X98772Y23231D01*
X98742Y23000D01*
X101000D01*
Y25258D01*
D02*
G37*
G36*
X162098Y34223D02*
X161876Y34193D01*
X161202Y33914D01*
X160624Y33471D01*
X160180Y32892D01*
X159901Y32219D01*
X159872Y31996D01*
X162098D01*
Y34223D01*
D02*
G37*
G36*
X87500Y31758D02*
Y29500D01*
X89758D01*
X89728Y29731D01*
X89446Y30412D01*
X88997Y30997D01*
X88412Y31446D01*
X87731Y31728D01*
X87500Y31758D01*
D02*
G37*
G36*
X24000Y36000D02*
X22509D01*
X22569Y35700D01*
X23022Y35022D01*
X23700Y34569D01*
X24000Y34509D01*
Y36000D01*
D02*
G37*
G36*
X163098Y34223D02*
Y31996D01*
X165325D01*
X165296Y32219D01*
X165017Y32892D01*
X164573Y33471D01*
X163995Y33914D01*
X163321Y34193D01*
X163098Y34223D01*
D02*
G37*
G36*
X165325Y30996D02*
X163098D01*
Y28769D01*
X163321Y28799D01*
X163995Y29078D01*
X164573Y29522D01*
X165017Y30100D01*
X165296Y30773D01*
X165325Y30996D01*
D02*
G37*
G36*
X162098D02*
X159872D01*
X159901Y30773D01*
X160180Y30100D01*
X160624Y29522D01*
X161202Y29078D01*
X161876Y28799D01*
X162098Y28769D01*
Y30996D01*
D02*
G37*
G36*
X86500Y31758D02*
X86269Y31728D01*
X85588Y31446D01*
X85003Y30997D01*
X84554Y30412D01*
X84272Y29731D01*
X84242Y29500D01*
X86500D01*
Y31758D01*
D02*
G37*
G36*
X154331Y56149D02*
X153300Y56013D01*
X152339Y55615D01*
X151514Y54982D01*
X150881Y54157D01*
X150483Y53196D01*
X150347Y52165D01*
X150483Y51134D01*
X150881Y50173D01*
X151514Y49349D01*
X152339Y48715D01*
X152911Y48478D01*
Y47978D01*
X152339Y47741D01*
X151514Y47108D01*
X150881Y46283D01*
X150483Y45322D01*
X150347Y44291D01*
X150483Y43260D01*
X150881Y42300D01*
X151514Y41474D01*
X152339Y40841D01*
X152911Y40604D01*
Y40104D01*
X152339Y39867D01*
X151514Y39234D01*
X150881Y38409D01*
X150483Y37448D01*
X150347Y36417D01*
X150483Y35386D01*
X150881Y34426D01*
X151514Y33600D01*
X152339Y32967D01*
X152911Y32730D01*
Y32230D01*
X152339Y31993D01*
X151514Y31360D01*
X150881Y30535D01*
X150483Y29574D01*
X150413Y29043D01*
X158249D01*
X158179Y29574D01*
X157781Y30535D01*
X157148Y31360D01*
X156323Y31993D01*
X155362Y32391D01*
Y32569D01*
X156323Y32967D01*
X157148Y33600D01*
X157781Y34426D01*
X158179Y35386D01*
X158314Y36417D01*
X158179Y37448D01*
X157781Y38409D01*
X157148Y39234D01*
X156323Y39867D01*
X155362Y40265D01*
Y40443D01*
X156323Y40841D01*
X157148Y41474D01*
X157781Y42300D01*
X158179Y43260D01*
X158314Y44291D01*
X158179Y45322D01*
X157781Y46283D01*
X157148Y47108D01*
X156323Y47741D01*
X155362Y48139D01*
Y48317D01*
X156323Y48715D01*
X157148Y49349D01*
X157781Y50173D01*
X158179Y51134D01*
X158314Y52165D01*
X158179Y53196D01*
X157781Y54157D01*
X157148Y54982D01*
X156323Y55615D01*
X155362Y56013D01*
X154331Y56149D01*
D02*
G37*
G36*
X162098Y17413D02*
X153956D01*
X154026Y16882D01*
X154424Y15922D01*
X155057Y15097D01*
X155882Y14463D01*
X156843Y14065D01*
X157874Y13930D01*
X162098D01*
Y17413D01*
D02*
G37*
G36*
X77500Y12258D02*
Y10000D01*
X79758D01*
X79728Y10231D01*
X79446Y10912D01*
X78997Y11497D01*
X78412Y11946D01*
X77731Y12228D01*
X77500Y12258D01*
D02*
G37*
G36*
X17500Y23833D02*
X16508Y23702D01*
X15584Y23319D01*
X14790Y22710D01*
X14181Y21916D01*
X13798Y20992D01*
X13667Y20000D01*
X13798Y19008D01*
X14181Y18084D01*
X14790Y17290D01*
X15584Y16681D01*
X16508Y16298D01*
X17500Y16167D01*
X18492Y16298D01*
X19416Y16681D01*
X20210Y17290D01*
X20819Y18084D01*
X21202Y19008D01*
X21333Y20000D01*
X21202Y20992D01*
X20819Y21916D01*
X20210Y22710D01*
X19416Y23319D01*
X18492Y23702D01*
X17500Y23833D01*
D02*
G37*
G36*
X171241Y17413D02*
X163098D01*
Y13930D01*
X167323D01*
X168354Y14065D01*
X169315Y14463D01*
X170140Y15097D01*
X170773Y15922D01*
X171171Y16882D01*
X171241Y17413D01*
D02*
G37*
G36*
X76500Y9000D02*
X74242D01*
X74272Y8769D01*
X74554Y8088D01*
X75003Y7503D01*
X75588Y7054D01*
X76269Y6772D01*
X76500Y6742D01*
Y9000D01*
D02*
G37*
G36*
X147638Y15596D02*
X146323Y15467D01*
X145059Y15083D01*
X143894Y14461D01*
X142873Y13623D01*
X142035Y12602D01*
X141413Y11437D01*
X141029Y10173D01*
X140900Y8858D01*
X141029Y7544D01*
X141413Y6280D01*
X142035Y5115D01*
X142873Y4094D01*
X143894Y3256D01*
X145059Y2633D01*
X146323Y2250D01*
X147638Y2120D01*
X148952Y2250D01*
X150216Y2633D01*
X151381Y3256D01*
X152402Y4094D01*
X153240Y5115D01*
X153863Y6280D01*
X154246Y7544D01*
X154376Y8858D01*
X154246Y10173D01*
X153863Y11437D01*
X153240Y12602D01*
X152402Y13623D01*
X151381Y14461D01*
X150216Y15083D01*
X148952Y15467D01*
X147638Y15596D01*
D02*
G37*
G36*
X76500Y12258D02*
X76269Y12228D01*
X75588Y11946D01*
X75003Y11497D01*
X74554Y10912D01*
X74272Y10231D01*
X74242Y10000D01*
X76500D01*
Y12258D01*
D02*
G37*
G36*
X79758Y9000D02*
X77500D01*
Y6742D01*
X77731Y6772D01*
X78412Y7054D01*
X78997Y7503D01*
X79446Y8088D01*
X79728Y8769D01*
X79758Y9000D01*
D02*
G37*
G36*
X167323Y21897D02*
X163098D01*
Y18413D01*
X171241D01*
X171171Y18944D01*
X170773Y19905D01*
X170140Y20730D01*
X169315Y21363D01*
X168354Y21761D01*
X167323Y21897D01*
D02*
G37*
G36*
X162098D02*
X157874D01*
X156843Y21761D01*
X155882Y21363D01*
X155057Y20730D01*
X154424Y19905D01*
X154026Y18944D01*
X153956Y18413D01*
X162098D01*
Y21897D01*
D02*
G37*
G36*
X104258Y22000D02*
X102000D01*
Y19742D01*
X102231Y19772D01*
X102912Y20054D01*
X103497Y20503D01*
X103946Y21088D01*
X104228Y21769D01*
X104258Y22000D01*
D02*
G37*
G36*
X101000D02*
X98742D01*
X98772Y21769D01*
X99054Y21088D01*
X99503Y20503D01*
X100088Y20054D01*
X100769Y19772D01*
X101000Y19742D01*
Y22000D01*
D02*
G37*
G36*
X37500Y23833D02*
X36508Y23702D01*
X35584Y23319D01*
X34790Y22710D01*
X34181Y21916D01*
X33798Y20992D01*
X33667Y20000D01*
X33798Y19008D01*
X34181Y18084D01*
X34790Y17290D01*
X35584Y16681D01*
X36508Y16298D01*
X37500Y16167D01*
X38492Y16298D01*
X39416Y16681D01*
X40210Y17290D01*
X40819Y18084D01*
X41202Y19008D01*
X41333Y20000D01*
X41202Y20992D01*
X40819Y21916D01*
X40210Y22710D01*
X39416Y23319D01*
X38492Y23702D01*
X37500Y23833D01*
D02*
G37*
G36*
X27500D02*
X26508Y23702D01*
X25584Y23319D01*
X24790Y22710D01*
X24181Y21916D01*
X23798Y20992D01*
X23667Y20000D01*
X23798Y19008D01*
X24181Y18084D01*
X24790Y17290D01*
X25584Y16681D01*
X26508Y16298D01*
X27500Y16167D01*
X28492Y16298D01*
X29416Y16681D01*
X30210Y17290D01*
X30819Y18084D01*
X31202Y19008D01*
X31333Y20000D01*
X31202Y20992D01*
X30819Y21916D01*
X30210Y22710D01*
X29416Y23319D01*
X28492Y23702D01*
X27500Y23833D01*
D02*
G37*
G36*
X11300Y19500D02*
X8000D01*
Y16200D01*
X11300D01*
Y19500D01*
D02*
G37*
G36*
X7000D02*
X3700D01*
Y16200D01*
X7000D01*
Y19500D01*
D02*
G37*
G36*
X26491Y36000D02*
X25000D01*
Y34509D01*
X25300Y34569D01*
X25978Y35022D01*
X26431Y35700D01*
X26491Y36000D01*
D02*
G37*
G36*
X162098Y62295D02*
X153956D01*
X154026Y61764D01*
X154424Y60803D01*
X155057Y59978D01*
X155882Y59345D01*
X156843Y58947D01*
X157874Y58812D01*
X162098D01*
Y62295D01*
D02*
G37*
G36*
X11300Y59500D02*
X8000D01*
Y56200D01*
X11300D01*
Y59500D01*
D02*
G37*
G36*
X123516Y62576D02*
X123088Y62520D01*
X122222Y62161D01*
X121480Y61591D01*
X120910Y60848D01*
X120551Y59983D01*
X120495Y59555D01*
X123516D01*
Y62576D01*
D02*
G37*
G36*
X171241Y62295D02*
X163098D01*
Y58812D01*
X167323D01*
X168354Y58947D01*
X169315Y59345D01*
X170140Y59978D01*
X170773Y60803D01*
X171171Y61764D01*
X171241Y62295D01*
D02*
G37*
G36*
X17500Y63833D02*
X16508Y63702D01*
X15584Y63319D01*
X14790Y62710D01*
X14181Y61916D01*
X13798Y60992D01*
X13667Y60000D01*
X13798Y59008D01*
X14181Y58084D01*
X14790Y57290D01*
X15584Y56681D01*
X16508Y56298D01*
X17500Y56167D01*
X18492Y56298D01*
X19416Y56681D01*
X20210Y57290D01*
X20819Y58084D01*
X21202Y59008D01*
X21333Y60000D01*
X21202Y60992D01*
X20819Y61916D01*
X20210Y62710D01*
X19416Y63319D01*
X18492Y63702D01*
X17500Y63833D01*
D02*
G37*
G36*
X127536Y58555D02*
X124516D01*
Y55534D01*
X124944Y55591D01*
X125809Y55949D01*
X126552Y56519D01*
X127122Y57262D01*
X127480Y58127D01*
X127536Y58555D01*
D02*
G37*
G36*
X7000Y59500D02*
X3700D01*
Y56200D01*
X7000D01*
Y59500D01*
D02*
G37*
G36*
X27500Y63833D02*
X26508Y63702D01*
X25584Y63319D01*
X24790Y62710D01*
X24181Y61916D01*
X23798Y60992D01*
X23667Y60000D01*
X23798Y59008D01*
X24181Y58084D01*
X24790Y57290D01*
X25584Y56681D01*
X26508Y56298D01*
X27500Y56167D01*
X28492Y56298D01*
X29416Y56681D01*
X30210Y57290D01*
X30819Y58084D01*
X31202Y59008D01*
X31333Y60000D01*
X31202Y60992D01*
X30819Y61916D01*
X30210Y62710D01*
X29416Y63319D01*
X28492Y63702D01*
X27500Y63833D01*
D02*
G37*
G36*
X167323Y66779D02*
X163098D01*
Y63295D01*
X171241D01*
X171171Y63826D01*
X170773Y64787D01*
X170140Y65612D01*
X169315Y66245D01*
X168354Y66643D01*
X167323Y66779D01*
D02*
G37*
G36*
X162098D02*
X157874D01*
X156843Y66643D01*
X155882Y66245D01*
X155057Y65612D01*
X154424Y64787D01*
X154026Y63826D01*
X153956Y63295D01*
X162098D01*
Y66779D01*
D02*
G37*
G36*
X74767Y72000D02*
X71500D01*
Y68733D01*
X71992Y68798D01*
X72916Y69181D01*
X73710Y69790D01*
X74319Y70584D01*
X74702Y71508D01*
X74767Y72000D01*
D02*
G37*
G36*
X70500D02*
X67233D01*
X67298Y71508D01*
X67681Y70584D01*
X68290Y69790D01*
X69084Y69181D01*
X70008Y68798D01*
X70500Y68733D01*
Y72000D01*
D02*
G37*
G36*
X7000Y63800D02*
X3700D01*
Y60500D01*
X7000D01*
Y63800D01*
D02*
G37*
G36*
X124516Y62576D02*
Y59555D01*
X127536D01*
X127480Y59983D01*
X127122Y60848D01*
X126552Y61591D01*
X125809Y62161D01*
X124944Y62520D01*
X124516Y62576D01*
D02*
G37*
G36*
X101000Y76333D02*
X100008Y76202D01*
X99084Y75819D01*
X98290Y75210D01*
X97681Y74416D01*
X97298Y73492D01*
X97167Y72500D01*
X97298Y71508D01*
X97681Y70584D01*
X98290Y69790D01*
X99084Y69181D01*
X99674Y68936D01*
Y66080D01*
X99522Y65978D01*
X99069Y65300D01*
X98910Y64500D01*
X99069Y63700D01*
X99522Y63022D01*
X100200Y62569D01*
X101000Y62410D01*
X101800Y62569D01*
X102478Y63022D01*
X102931Y63700D01*
X103090Y64500D01*
X102931Y65300D01*
X102478Y65978D01*
X102325Y66080D01*
Y68936D01*
X102916Y69181D01*
X103710Y69790D01*
X104319Y70584D01*
X104702Y71508D01*
X104833Y72500D01*
X104702Y73492D01*
X104319Y74416D01*
X103710Y75210D01*
X102916Y75819D01*
X101992Y76202D01*
X101000Y76333D01*
D02*
G37*
G36*
X11300Y63800D02*
X8000D01*
Y60500D01*
X11300D01*
Y63800D01*
D02*
G37*
G36*
X91258Y41500D02*
X89000D01*
Y39242D01*
X89231Y39272D01*
X89912Y39554D01*
X90497Y40003D01*
X90946Y40588D01*
X91228Y41269D01*
X91258Y41500D01*
D02*
G37*
G36*
X88000D02*
X85742D01*
X85772Y41269D01*
X86054Y40588D01*
X86503Y40003D01*
X87088Y39554D01*
X87769Y39272D01*
X88000Y39242D01*
Y41500D01*
D02*
G37*
G36*
X105500Y41758D02*
Y39500D01*
X107758D01*
X107728Y39731D01*
X107446Y40412D01*
X106997Y40997D01*
X106412Y41446D01*
X105731Y41728D01*
X105500Y41758D01*
D02*
G37*
G36*
X104500D02*
X104269Y41728D01*
X103588Y41446D01*
X103003Y40997D01*
X102554Y40412D01*
X102272Y39731D01*
X102242Y39500D01*
X104500D01*
Y41758D01*
D02*
G37*
G36*
X107758Y38500D02*
X105500D01*
Y36242D01*
X105731Y36272D01*
X106412Y36554D01*
X106997Y37003D01*
X107446Y37588D01*
X107728Y38269D01*
X107758Y38500D01*
D02*
G37*
G36*
X104500D02*
X102242D01*
X102272Y38269D01*
X102554Y37588D01*
X103003Y37003D01*
X103588Y36554D01*
X104269Y36272D01*
X104500Y36242D01*
Y38500D01*
D02*
G37*
G36*
X25000Y38491D02*
Y37000D01*
X26491D01*
X26431Y37300D01*
X25978Y37978D01*
X25300Y38431D01*
X25000Y38491D01*
D02*
G37*
G36*
X24000D02*
X23700Y38431D01*
X23022Y37978D01*
X22569Y37300D01*
X22509Y37000D01*
X24000D01*
Y38491D01*
D02*
G37*
G36*
X163098Y51939D02*
Y49713D01*
X165325D01*
X165296Y49935D01*
X165017Y50609D01*
X164573Y51187D01*
X163995Y51631D01*
X163321Y51910D01*
X163098Y51939D01*
D02*
G37*
G36*
X162098D02*
X161876Y51910D01*
X161202Y51631D01*
X160624Y51187D01*
X160180Y50609D01*
X159901Y49935D01*
X159872Y49713D01*
X162098D01*
Y51939D01*
D02*
G37*
G36*
X123516Y58555D02*
X120495D01*
X120551Y58127D01*
X120910Y57262D01*
X121480Y56519D01*
X122222Y55949D01*
X123088Y55591D01*
X123516Y55534D01*
Y58555D01*
D02*
G37*
G36*
X101000Y58590D02*
X100200Y58431D01*
X99522Y57978D01*
X99069Y57300D01*
X98910Y56500D01*
X99069Y55700D01*
X99522Y55022D01*
X100200Y54569D01*
X101000Y54410D01*
X101800Y54569D01*
X102478Y55022D01*
X102580Y55174D01*
X109951D01*
X110563Y54563D01*
X110563D01*
X110563Y54563D01*
X110563Y54563D01*
Y54563D01*
X110993Y54275D01*
X111500Y54175D01*
X114420D01*
X114522Y54022D01*
X115200Y53569D01*
X116000Y53410D01*
X116800Y53569D01*
X117478Y54022D01*
X117931Y54700D01*
X118090Y55500D01*
X117931Y56300D01*
X117478Y56978D01*
X116800Y57431D01*
X116000Y57590D01*
X115200Y57431D01*
X114522Y56978D01*
X114420Y56826D01*
X112049D01*
X111437Y57437D01*
X111007Y57725D01*
X110500Y57825D01*
X102580D01*
X102478Y57978D01*
X101800Y58431D01*
X101000Y58590D01*
D02*
G37*
G36*
X89000Y44758D02*
Y42500D01*
X91258D01*
X91228Y42731D01*
X90946Y43412D01*
X90497Y43997D01*
X89912Y44446D01*
X89231Y44728D01*
X89000Y44758D01*
D02*
G37*
G36*
X88000D02*
X87769Y44728D01*
X87088Y44446D01*
X86503Y43997D01*
X86054Y43412D01*
X85772Y42731D01*
X85742Y42500D01*
X88000D01*
Y44758D01*
D02*
G37*
G36*
X165325Y48713D02*
X163098D01*
Y46486D01*
X163321Y46515D01*
X163995Y46794D01*
X164573Y47238D01*
X165017Y47816D01*
X165296Y48490D01*
X165325Y48713D01*
D02*
G37*
G36*
X162098D02*
X159872D01*
X159901Y48490D01*
X160180Y47816D01*
X160624Y47238D01*
X161202Y46794D01*
X161876Y46515D01*
X162098Y46486D01*
Y48713D01*
D02*
G37*
%LPD*%
D25*
X111500Y55500D02*
X116000D01*
X110500Y56500D02*
X111500Y55500D01*
X101000Y56500D02*
X110500D01*
X101000Y64500D02*
Y72500D01*
D26*
X121000Y60000D02*
X146500D01*
X121000D02*
X124016Y56984D01*
Y59055D01*
X85000Y78500D02*
X91000Y72500D01*
X42500Y78500D02*
X85000D01*
X162598Y28500D02*
Y31496D01*
Y17913D02*
Y28500D01*
X154374D02*
X162598D01*
Y49213D02*
Y62795D01*
Y31496D02*
Y49213D01*
X149295Y62795D02*
X162598D01*
X146500Y60000D02*
X149295Y62795D01*
X97500Y33000D02*
Y39000D01*
Y29000D02*
Y33000D01*
X24500D02*
X97500D01*
X24500D02*
Y36500D01*
X7500Y33000D02*
Y60000D01*
Y20000D02*
Y33000D01*
X24500D01*
X97500Y26500D02*
X101500Y22500D01*
X97500Y26500D02*
Y29000D01*
Y16500D02*
Y26500D01*
X77000Y9500D02*
X90500D01*
X97500Y16500D01*
X98000Y60000D02*
X121000D01*
X97500Y42000D02*
Y60500D01*
X92500Y65500D02*
X97500Y60500D01*
X98000Y60000D01*
X73000Y65500D02*
X92500D01*
X97500Y39000D02*
Y42000D01*
Y39000D02*
X105000D01*
X88500Y42000D02*
X97500D01*
X87000Y29000D02*
X97500D01*
X71000Y67500D02*
X73000Y65500D01*
X71000Y67500D02*
Y72500D01*
X37500Y73500D02*
X42500Y78500D01*
X37500Y60000D02*
Y73500D01*
D28*
X156693Y0D02*
G03*
X159449Y2756I0J2756D01*
G01*
X170472Y5512D02*
G03*
X173228Y8268I0J2756D01*
G01*
X159449Y77953D02*
G03*
X156693Y80709I-2756J0D01*
G01*
X173228Y72441D02*
G03*
X170472Y75197I-2756J0D01*
G01*
X11811Y2756D02*
G03*
X14567Y0I2756J0D01*
G01*
X0Y16535D02*
G03*
X2756Y13780I2756J0D01*
G01*
X14567Y80709D02*
G03*
X11811Y77953I0J-2756D01*
G01*
X2756Y66929D02*
G03*
X0Y64173I0J-2756D01*
G01*
X14567Y80709D02*
X156693D01*
X159449Y75197D02*
Y77953D01*
X173228Y8268D02*
Y72441D01*
X159449Y75197D02*
X170472D01*
X159449Y5512D02*
X170472D01*
X159449Y2756D02*
Y5512D01*
X14567Y0D02*
X156693D01*
X11811Y66929D02*
Y77953D01*
X2756Y66929D02*
X11811D01*
X0Y16535D02*
Y64173D01*
X2756Y13780D02*
X11811D01*
Y2756D02*
Y13780D01*
D29*
X154331Y52165D02*
D03*
Y44291D02*
D03*
Y36417D02*
D03*
Y28543D02*
D03*
D30*
X162598Y49213D02*
D03*
Y31496D02*
D03*
D31*
Y62795D02*
D03*
Y17913D02*
D03*
D32*
X91000Y72500D02*
D03*
X81000D02*
D03*
X71000D02*
D03*
X101000D02*
D03*
X17500Y20000D02*
D03*
X27500D02*
D03*
X37500D02*
D03*
X17500Y60000D02*
D03*
X27500D02*
D03*
X37500D02*
D03*
D33*
X61000Y72500D02*
D03*
X7500Y20000D02*
D03*
Y60000D02*
D03*
D34*
X147638Y8858D02*
D03*
X19685Y71850D02*
D03*
D35*
X124016Y59055D02*
D03*
D36*
X24500Y36500D02*
D03*
X116000Y55500D02*
D03*
X101000Y56500D02*
D03*
Y64500D02*
D03*
D37*
X77000Y9500D02*
D03*
X101500Y22500D02*
D03*
X87000Y29000D02*
D03*
X88500Y42000D02*
D03*
X105000Y39000D02*
D03*
M02*
