%FSLAX25Y25*%
%MOIN*%
G70*
G01*
G75*
G04 Layer_Color=65535*
%ADD10R,0.03937X0.03937*%
%ADD11C,0.03937*%
%ADD12R,0.03150X0.03150*%
%ADD13R,0.03150X0.03150*%
%ADD14R,0.00984X0.06299*%
%ADD15R,0.06299X0.00984*%
%ADD16O,0.06299X0.00984*%
%ADD17O,0.03937X0.03937*%
%ADD18R,0.07087X0.04724*%
%ADD19O,0.04000X0.01200*%
%ADD20R,0.04000X0.01200*%
%ADD21R,0.03600X0.03600*%
%ADD22R,0.03600X0.05000*%
%ADD23R,0.09449X0.03937*%
%ADD24R,0.09449X0.12992*%
%ADD25C,0.01000*%
%ADD26C,0.02000*%
%ADD27C,0.04000*%
%ADD28C,0.00787*%
%ADD29C,0.06299*%
%ADD30C,0.03937*%
%ADD31O,0.15748X0.06299*%
%ADD32C,0.06000*%
%ADD33R,0.06000X0.06000*%
%ADD34C,0.11811*%
%ADD35C,0.05512*%
%ADD36C,0.02500*%
%ADD37C,0.04000*%
%ADD38C,0.00984*%
%ADD39C,0.00800*%
%ADD40C,0.01200*%
D25*
X52606Y27650D02*
X61236D01*
X59106Y21350D02*
X61236D01*
X47063D02*
X55606D01*
X47063Y27650D02*
X48606D01*
X61236Y21350D02*
Y27650D01*
X47063Y21350D02*
Y27650D01*
X98764Y1350D02*
X107394D01*
X98764Y7650D02*
X100894D01*
X104394D02*
X112937D01*
X111394Y1350D02*
X112937D01*
X98764D02*
Y7650D01*
X112937Y1350D02*
Y7650D01*
X124307Y49150D02*
X132937D01*
X130807Y42850D02*
X132937D01*
X118764D02*
X127307D01*
X118764Y49150D02*
X120307D01*
X132937Y42850D02*
Y49150D01*
X118764Y42850D02*
Y49150D01*
X148653Y77461D02*
X157283D01*
X155154Y71161D02*
X157283D01*
X143110D02*
X151654D01*
X143110Y77461D02*
X144653D01*
X157283Y71161D02*
Y77461D01*
X143110Y71161D02*
Y77461D01*
X125563Y5350D02*
Y11650D01*
X139736Y5350D02*
Y11650D01*
X125563D02*
X134815D01*
X125563Y5350D02*
X130484D01*
X139736D01*
X134815Y11650D02*
X139736D01*
X19563Y47850D02*
Y54150D01*
X33736Y47850D02*
Y54150D01*
X19563D02*
X28815D01*
X19563Y47850D02*
X24484D01*
X33736D01*
X28815Y54150D02*
X33736D01*
X4764Y47850D02*
Y54150D01*
X18937Y47850D02*
Y54150D01*
X4764D02*
X14016D01*
X4764Y47850D02*
X9685D01*
X18937D01*
X14016Y54150D02*
X18937D01*
X28764Y8350D02*
Y14650D01*
X42937Y8350D02*
Y14650D01*
X28764D02*
X38016D01*
X28764Y8350D02*
X33685D01*
X42937D01*
X38016Y14650D02*
X42937D01*
X28764Y1850D02*
Y8150D01*
X42937Y1850D02*
Y8150D01*
X28764D02*
X38016D01*
X28764Y1850D02*
X33685D01*
X42937D01*
X38016Y8150D02*
X42937D01*
X56000Y67500D02*
Y77500D01*
X106000D01*
Y67500D02*
Y77500D01*
X56000Y67500D02*
X106000D01*
X56000Y77500D02*
Y79500D01*
X96000D01*
Y77500D02*
Y79500D01*
X66000Y77500D02*
Y79500D01*
X147236Y42850D02*
Y49150D01*
X133063Y42850D02*
Y49150D01*
X137984Y42850D02*
X147236D01*
X142315Y49150D02*
X147236D01*
X133063D02*
X142315D01*
X133063Y42850D02*
X137984D01*
X44984Y56130D02*
X46264Y54850D01*
X44984Y56130D02*
Y59870D01*
X46264Y61150D01*
X60437Y54850D02*
Y61150D01*
X46264Y54850D02*
Y61150D01*
X58894Y54850D02*
X60437D01*
X46264Y61150D02*
X60437D01*
X46264Y54850D02*
X58894D01*
X46063Y48350D02*
Y54650D01*
X60236Y48350D02*
Y54650D01*
X46063D02*
X55315D01*
X46063Y48350D02*
X50984D01*
X60236D01*
X55315Y54650D02*
X60236D01*
X66063Y49850D02*
Y56150D01*
X80236Y49850D02*
Y56150D01*
X66063D02*
X67606D01*
X66063Y49850D02*
X74606D01*
X78106D02*
X80236D01*
X71606Y56150D02*
X80236D01*
X141850Y68236D02*
X148150D01*
X141850Y54063D02*
X148150D01*
Y66693D02*
Y68236D01*
X141850Y59693D02*
Y68236D01*
Y54063D02*
Y56193D01*
X148150Y54063D02*
Y62693D01*
X44110Y16803D02*
X47063Y13850D01*
X44110Y16803D02*
Y17197D01*
X47063Y20150D01*
X61236Y13850D02*
Y20150D01*
X47063Y13850D02*
Y20150D01*
X59693Y13850D02*
X61236D01*
X47063Y20150D02*
X61236D01*
X47063Y13850D02*
X59693D01*
X61264Y10350D02*
Y16650D01*
X75437Y10350D02*
Y16650D01*
X61264D02*
X70516D01*
X61264Y10350D02*
X66185D01*
X75437D01*
X70516Y16650D02*
X75437D01*
X54736Y68350D02*
Y74650D01*
X40563Y68350D02*
Y74650D01*
X45484Y68350D02*
X54736D01*
X49815Y74650D02*
X54736D01*
X40563D02*
X49815D01*
X40563Y68350D02*
X45484D01*
X2500Y15000D02*
X42500D01*
Y25000D01*
X2500D02*
X42500D01*
X2500Y15000D02*
Y25000D01*
X38437Y29850D02*
Y36150D01*
X24264Y29850D02*
Y36150D01*
X36894Y29850D02*
X38437D01*
X29894Y36150D02*
X38437D01*
X24264D02*
X26394D01*
X24264Y29850D02*
X32894D01*
X38437Y36850D02*
Y43150D01*
X24264Y36850D02*
Y43150D01*
X36894Y36850D02*
X38437D01*
X29894Y43150D02*
X38437D01*
X24264D02*
X26394D01*
X24264Y36850D02*
X32894D01*
X80437Y56949D02*
Y63248D01*
X66264Y56949D02*
Y63248D01*
X71185Y56949D02*
X80437D01*
X75516Y63248D02*
X80437D01*
X66264D02*
X75516D01*
X66264Y56949D02*
X71185D01*
X47063Y7350D02*
Y13650D01*
X61236Y7350D02*
Y13650D01*
X47063D02*
X56315D01*
X47063Y7350D02*
X51984D01*
X61236D01*
X56315Y13650D02*
X61236D01*
X61063Y3850D02*
Y10150D01*
X75236Y3850D02*
Y10150D01*
X61063D02*
X62606D01*
X61063Y3850D02*
X69606D01*
X73106D02*
X75236D01*
X66606Y10150D02*
X75236D01*
X2500Y55000D02*
X42500D01*
Y65000D01*
X2500D02*
X42500D01*
X2500Y55000D02*
Y65000D01*
D28*
X135000Y28000D02*
G03*
X132060Y28000I-1470J0D01*
G01*
X173228Y17913D02*
Y62795D01*
X172047D02*
X173228D01*
X172047Y17913D02*
X173228D01*
X149803D02*
Y62795D01*
X153051D01*
X149803Y17913D02*
X153051D01*
X173228Y14469D02*
Y17913D01*
Y62795D02*
Y66240D01*
X77736Y49433D02*
X82169D01*
X77736Y14000D02*
X82169D01*
X77736D02*
Y18433D01*
X113169Y45000D02*
Y49433D01*
X108736D02*
X113169D01*
X125500Y28000D02*
Y37000D01*
X142000D01*
Y28000D02*
Y37000D01*
X135000Y28000D02*
X142000D01*
X125500D02*
X132000D01*
X128917Y52311D02*
Y78689D01*
X118917Y52311D02*
Y78689D01*
Y52311D02*
X128917D01*
X118917Y78689D02*
X128917D01*
X156693Y0D02*
G03*
X159449Y2756I0J2756D01*
G01*
X170472Y5512D02*
G03*
X173228Y8268I0J2756D01*
G01*
X159449Y77953D02*
G03*
X156693Y80709I-2756J0D01*
G01*
X173228Y72441D02*
G03*
X170472Y75197I-2756J0D01*
G01*
X11811Y2756D02*
G03*
X14567Y0I2756J0D01*
G01*
X0Y16535D02*
G03*
X2756Y13780I2756J0D01*
G01*
X14567Y80709D02*
G03*
X11811Y77953I0J-2756D01*
G01*
X2756Y66929D02*
G03*
X0Y64173I0J-2756D01*
G01*
X14567Y80709D02*
X156693D01*
X159449Y75197D02*
Y77953D01*
X173228Y8268D02*
Y72441D01*
X159449Y75197D02*
X170472D01*
X159449Y5512D02*
X170472D01*
X159449Y2756D02*
Y5512D01*
X14567Y0D02*
X156693D01*
X11811Y66929D02*
Y77953D01*
X2756Y66929D02*
X11811D01*
X0Y16535D02*
Y64173D01*
X2756Y13780D02*
X11811D01*
Y2756D02*
Y13780D01*
D38*
X135827Y52311D02*
G03*
X135827Y52311I-492J0D01*
G01*
D39*
X66000Y67500D02*
Y77500D01*
X65583Y29005D02*
Y46830D01*
X38800Y46831D02*
X65583Y46830D01*
X38800Y28995D02*
Y46831D01*
Y28995D02*
X65583Y29005D01*
X67060Y39449D02*
Y46830D01*
X65583Y39449D02*
X67060D01*
X65583Y46830D02*
X67060D01*
X12500Y15000D02*
Y25000D01*
Y55000D02*
Y65000D01*
X86333Y65416D02*
X85749Y65999D01*
X84583D01*
X84000Y65416D01*
Y64833D01*
X84583Y64249D01*
X85749D01*
X86333Y63666D01*
Y63083D01*
X85749Y62500D01*
X84583D01*
X84000Y63083D01*
X87499Y65999D02*
Y62500D01*
X88665Y63666D01*
X89831Y62500D01*
Y65999D01*
X90998D02*
Y62500D01*
X92747D01*
X93330Y63083D01*
Y65416D01*
X92747Y65999D01*
X90998D01*
X47000Y5999D02*
Y2500D01*
X49333D01*
X52831D02*
X50499D01*
X52831Y4833D01*
Y5416D01*
X52248Y5999D01*
X51082D01*
X50499Y5416D01*
X46500Y66499D02*
Y63000D01*
X48833D01*
X49999D02*
X51165D01*
X50582D01*
Y66499D01*
X49999Y65916D01*
X50500Y78500D02*
Y77334D01*
Y77917D01*
X53999D01*
X53416Y78500D01*
X2000Y49500D02*
X3166D01*
X2583D01*
Y52999D01*
X2000Y52416D01*
X3000Y27000D02*
X4166D01*
X3583D01*
Y30499D01*
X3000Y29916D01*
X14500Y13499D02*
Y10583D01*
X15083Y10000D01*
X16249D01*
X16833Y10583D01*
Y13499D01*
X17999Y10000D02*
Y12333D01*
X19165Y13499D01*
X20332Y12333D01*
Y10000D01*
Y11749D01*
X17999D01*
X21498Y10000D02*
Y13499D01*
X23247D01*
X23830Y12916D01*
Y11749D01*
X23247Y11166D01*
X21498D01*
X22664D02*
X23830Y10000D01*
X24997Y13499D02*
X27329D01*
X26163D01*
Y10000D01*
X28000Y69999D02*
X29166D01*
X28583D01*
Y66500D01*
X28000D01*
X29166D01*
X33248D02*
X30916D01*
X33248Y68833D01*
Y69416D01*
X32665Y69999D01*
X31499D01*
X30916Y69416D01*
X36747D02*
X36164Y69999D01*
X34998D01*
X34415Y69416D01*
Y67083D01*
X34998Y66500D01*
X36164D01*
X36747Y67083D01*
D40*
X126700Y23500D02*
X128700D01*
X132200Y14500D02*
X132700D01*
X136200Y23500D02*
X138200D01*
X126700Y19000D02*
Y23500D01*
X138200Y19000D02*
Y23500D01*
X75768Y47465D02*
Y45965D01*
Y46715D01*
X80266D01*
X79517Y47465D01*
M02*
