M48
;Layer_Color=9474304
;FILE_FORMAT=2:5
INCH,LZ
;TYPE=PLATED
T1F00S00C0.01181
T2F00S00C0.01968
T3F00S00C0.03150
T4F00S00C0.03937
T6F00S00C0.07874
%
T01
X00245Y00365
X0101Y00565
Y00645
X0116Y00555
T02
X0077Y00095
X0087Y0029
X00885Y0042
X0105Y0039
X01015Y00225
T03
X0124016Y0059055
T04
X0162598Y0031496
Y0049213
X0154331Y0052165
Y0044291
Y0036417
Y0028543
X0101Y00725
X0091
X0081
X0071
X0061
X00375Y006
X00275
X00175
X00075
Y002
X00175
X00275
X00375
T06
X0019685Y007185
X0147638Y0008858
M30
